<?xml version="1.0" encoding="UTF-8" standalone="no"?>
<!-- Created with Inkscape (http://www.inkscape.org/) -->

<svg
   xmlns:dc="http://purl.org/dc/elements/1.1/"
   xmlns:cc="http://creativecommons.org/ns#"
   xmlns:rdf="http://www.w3.org/1999/02/22-rdf-syntax-ns#"
   xmlns:svg="http://www.w3.org/2000/svg"
   xmlns="http://www.w3.org/2000/svg"
   xmlns:sodipodi="http://sodipodi.sourceforge.net/DTD/sodipodi-0.dtd"
   xmlns:inkscape="http://www.inkscape.org/namespaces/inkscape"
   width="69.849998mm"
   height="69.849968mm"
   viewBox="0 0 69.849998 69.849968"
   version="1.1"
   id="svg1533"
   inkscape:version="0.92.5 (2060ec1f9f, 2020-04-08)"
   sodipodi:docname="base_1_v2.svg">
  <defs
     id="defs1527" />
  <sodipodi:namedview
     id="base"
     pagecolor="#ffffff"
     bordercolor="#666666"
     borderopacity="1.0"
     inkscape:pageopacity="0.0"
     inkscape:pageshadow="2"
     inkscape:zoom="0.98994949"
     inkscape:cx="-95.466458"
     inkscape:cy="91.666844"
     inkscape:document-units="mm"
     inkscape:current-layer="layer1"
     showgrid="false"
     fit-margin-top="0"
     fit-margin-left="0"
     fit-margin-right="0"
     fit-margin-bottom="0"
     inkscape:window-width="1920"
     inkscape:window-height="995"
     inkscape:window-x="0"
     inkscape:window-y="48"
     inkscape:window-maximized="1" />
  <metadata
     id="metadata1530">
    <rdf:RDF>
      <cc:Work
         rdf:about="">
        <dc:format>image/svg+xml</dc:format>
        <dc:type
           rdf:resource="http://purl.org/dc/dcmitype/StillImage" />
        <dc:title></dc:title>
      </cc:Work>
    </rdf:RDF>
  </metadata>
  <g
     inkscape:label="Layer 1"
     inkscape:groupmode="layer"
     id="layer1"
     transform="translate(79.148214,-113.90833)">
    <path
       inkscape:connector-curvature="0"
       style="fill:#987d53;stroke:none;stroke-width:0.26458332;fill-opacity:1"
       d="m -20.146131,125.02083 -0.132291,0.14552 -0.119063,-0.14552 q -9.04875,-7.40833 -21.179896,-7.40833 -14.022916,0 -23.944791,9.92188 -9.921876,9.92187 -9.921876,23.94479 0,12.11791 7.408334,21.17989 l 0.396875,0.3175 -0.171979,0.17198 -0.357188,-0.35719 -1.296458,-1.34937 q -8.625417,-9.525 -8.625417,-22.60865 0,-14.02291 9.921875,-23.94479 9.921875,-9.92187 23.944792,-9.92187 13.083646,0 22.582187,8.62541 l 1.362605,1.29646 0.132291,0.13229 m -23.455312,12.84552 h 0.198437 q 3.955521,0 6.971771,2.26219 l 0.740833,0.59531 0.621771,0.59532 q 0.661459,0.64823 1.190625,1.3626 2.262188,3.01625 2.262188,6.97177 0,4.89479 -3.452813,8.33438 -3.439583,3.45281 -8.334375,3.45281 -3.955521,0 -6.971771,-2.26219 l -1.362604,-1.19062 -0.515937,-0.5424 -0.674688,-0.82021 q -2.262187,-3.01625 -2.262187,-6.97177 v -0.19844 q 0.15875,3.29407 2.090208,5.86053 0.489479,0.64822 1.11125,1.27 l 0.304271,0.29104 q 0.463021,0.43656 0.965729,0.82021 2.804583,2.10343 6.495521,2.10343 4.550833,0 7.752292,-3.21468 3.214687,-3.20146 3.214687,-7.7523 0,-3.69093 -2.103437,-6.49552 l -0.886354,-1.0451 -0.224896,-0.2249 q -0.621771,-0.62177 -1.27,-1.11125 -2.566459,-1.93146 -5.860521,-2.09021"
       id="path20" />
    <path
       inkscape:connector-curvature="0"
       style="fill:#87704f;stroke:none;stroke-width:0.26458332;fill-opacity:1"
       d="m -43.601443,137.86635 -0.621771,-0.0132 q -4.550833,0 -7.765521,3.21468 -3.214687,3.21469 -3.214687,7.76552 l 0.01323,0.62177 v 0.19844 q 0,3.95552 2.262187,6.97177 l 0.674688,0.82021 0.515937,0.5424 1.362604,1.19062 q 3.01625,2.26219 6.971771,2.26219 4.894792,0 8.334375,-3.45281 3.452813,-3.43959 3.452813,-8.33438 0,-3.95552 -2.262188,-6.97177 -0.529166,-0.71437 -1.190625,-1.3626 l -0.621771,-0.59532 -0.740833,-0.59531 q -3.01625,-2.26219 -6.971771,-2.26219 h -0.198438 m -24.037396,35.11021 -0.396875,-0.3175 q -7.408334,-9.06198 -7.408334,-21.17989 0,-14.02292 9.921876,-23.94479 9.921875,-9.92188 23.944791,-9.92188 12.131146,0 21.179896,7.40833 l 0.119063,0.14552 q 7.276041,8.99584 7.276041,21.02115 0,14.03615 -9.921875,23.95802 -9.908646,9.90865 -23.944791,9.90865 -11.853334,0 -20.769792,-7.07761"
       id="path22" />
    <path
       inkscape:connector-curvature="0"
       style="fill:#382f23;stroke:none;stroke-width:0.26458332"
       d="m -19.405297,124.26677 1.190625,1.25677 0.01323,0.0132 q 8.9032277,9.80281 8.9032277,23.29656 0,14.47271 -10.2261457,24.71209 -10.226146,10.21291 -24.698854,10.21291 -13.49375,0 -23.296563,-8.89 l -1.031875,-0.96573 -0.357187,-0.35718 -1.336146,-1.38907 v -0.0132 q -8.903229,-9.81604 -8.903229,-23.30979 0,-14.45948 10.239375,-24.68562 10.226146,-10.23938 24.685625,-10.23938 13.49375,0 23.296562,8.90323 l 1.402292,1.33615 0.119063,0.11906 m -0.740834,0.75406 -0.132291,-0.13229 -1.362605,-1.29646 q -9.498541,-8.62541 -22.582187,-8.62541 -14.022917,0 -23.944792,9.92187 -9.921875,9.92188 -9.921875,23.94479 0,13.08365 8.625417,22.60865 l 1.296458,1.34937 0.357188,0.35719 0.992187,0.92604 q 9.511771,8.62542 22.595417,8.62542 14.036146,0 23.944792,-9.90865 9.921875,-9.92187 9.921875,-23.95802 0,-13.08364 -8.638646,-22.59541 l -1.150938,-1.21709 m -35.044062,24.43427 -0.01323,-0.62177 q 0,-4.55083 3.214687,-7.76552 3.214688,-3.21468 7.765521,-3.21468 l 0.621771,0.0132 q 3.294062,0.15875 5.860521,2.0902 0.648229,0.48948 1.27,1.11125 l 0.224895,0.2249 0.886355,1.0451 q 2.103437,2.80459 2.103437,6.49552 0,4.55084 -3.214687,7.7523 -3.201459,3.21468 -7.752292,3.21468 -3.690938,0 -6.495521,-2.10343 -0.502708,-0.38365 -0.965729,-0.82021 l -0.304271,-0.29104 q -0.621771,-0.62177 -1.11125,-1.27 -1.931458,-2.56646 -2.090208,-5.86052 m 2.936875,5.22552 1.018646,1.16416 0.291041,0.27782 0.859896,0.7276 0.01323,0.0132 q 2.526771,1.87854 5.847292,1.87854 4.114271,0 7.011458,-2.89719 2.897188,-2.89718 2.897188,-7.01145 0,-3.32053 -1.878542,-5.8473 l -0.01323,-0.0132 -0.79375,-0.92604 -0.211667,-0.22489 -1.164166,-1.01865 q -2.526771,-1.89177 -5.847292,-1.89177 -4.114271,0 -7.011458,2.91042 -2.910417,2.89718 -2.910417,7.01145 0,3.32052 1.891771,5.8473"
       id="path24" />
    <path
       inkscape:connector-curvature="0"
       style="fill:#6e5736;stroke:none;stroke-width:0.26458332;fill-opacity:1"
       d="m -20.278422,125.16635 0.132291,-0.14552 1.150938,1.21709 q 8.638646,9.51177 8.638646,22.59541 0,14.03615 -9.921875,23.95802 -9.908646,9.90865 -23.944792,9.90865 -13.083646,0 -22.595417,-8.62542 l -0.992187,-0.92604 0.171979,-0.17198 q 8.916458,7.07761 20.769792,7.07761 14.036145,0 23.944791,-9.90865 9.921875,-9.92187 9.921875,-23.95802 0,-12.02531 -7.276041,-21.02115"
       id="path26" />
  </g>
</svg>
