<?xml version="1.0" encoding="UTF-8" standalone="no"?>
<!-- Created with Inkscape (http://www.inkscape.org/) -->

<svg
   xmlns:dc="http://purl.org/dc/elements/1.1/"
   xmlns:cc="http://creativecommons.org/ns#"
   xmlns:rdf="http://www.w3.org/1999/02/22-rdf-syntax-ns#"
   xmlns:svg="http://www.w3.org/2000/svg"
   xmlns="http://www.w3.org/2000/svg"
   xmlns:sodipodi="http://sodipodi.sourceforge.net/DTD/sodipodi-0.dtd"
   xmlns:inkscape="http://www.inkscape.org/namespaces/inkscape"
   width="69.849998mm"
   height="69.849968mm"
   viewBox="0 0 69.849998 69.849968"
   version="1.1"
   id="svg939"
   inkscape:version="0.92.5 (2060ec1f9f, 2020-04-08)"
   sodipodi:docname="base_0.svg">
  <defs
     id="defs933" />
  <sodipodi:namedview
     id="base"
     pagecolor="#ffffff"
     bordercolor="#666666"
     borderopacity="1.0"
     inkscape:pageopacity="0.0"
     inkscape:pageshadow="2"
     inkscape:zoom="0.35"
     inkscape:cx="602"
     inkscape:cy="6.2857197"
     inkscape:document-units="mm"
     inkscape:current-layer="layer1"
     showgrid="false"
     fit-margin-top="0"
     fit-margin-left="0"
     fit-margin-right="0"
     fit-margin-bottom="0"
     inkscape:window-width="1920"
     inkscape:window-height="995"
     inkscape:window-x="0"
     inkscape:window-y="48"
     inkscape:window-maximized="1" />
  <metadata
     id="metadata936">
    <rdf:RDF>
      <cc:Work
         rdf:about="">
        <dc:format>image/svg+xml</dc:format>
        <dc:type
           rdf:resource="http://purl.org/dc/dcmitype/StillImage" />
        <dc:title></dc:title>
      </cc:Work>
    </rdf:RDF>
  </metadata>
  <g
     inkscape:label="Layer 1"
     inkscape:groupmode="layer"
     id="layer1"
     transform="translate(203.50238,-80.646459)">
    <path
       d="m -142.55561,92.274866 q 8.90323,9.802814 8.90323,23.296564 0,14.47271 -10.22615,24.71208 -10.22614,10.21292 -24.69885,10.21292 -13.49375,0 -23.29656,-8.89 l -1.38907,-1.32292 -1.33614,-1.38906 v -0.0132 q -8.90323,-9.81604 -8.90323,-23.30979 0,-14.45948 10.23937,-24.685626 10.22615,-10.239375 24.68563,-10.239375 13.49375,0 23.29656,8.903229 l 1.40229,1.336146 1.30969,1.375833 0.0132,0.01323 m -0.79375,0.701145 -1.28323,-1.349375 -1.3626,-1.296458 q -9.49854,-8.625417 -22.58219,-8.625417 -14.02292,0 -23.94479,9.921875 -9.92188,9.921873 -9.92188,23.944793 0,13.08364 8.62542,22.60864 l 1.29646,1.34938 1.34937,1.28323 q 9.51177,8.62542 22.59542,8.62542 14.03615,0 23.94479,-9.90865 9.92188,-9.92188 9.92188,-23.95802 0,-13.08365 -8.63865,-22.595418 m -17.21115,16.734898 -1.00541,-1.15094 -1.16417,-1.01865 q -2.52677,-1.89177 -5.84729,-1.89177 -4.11427,0 -7.01146,2.91042 -2.91042,2.89719 -2.91042,7.01146 0,3.32052 1.89178,5.84729 l 1.01864,1.16417 1.15094,1.00541 0.0132,0.0132 q 2.52677,1.87855 5.84729,1.87855 4.11427,0 7.01146,-2.89719 2.89719,-2.89719 2.89719,-7.01146 0,-3.32052 -1.87855,-5.84729 l -0.0132,-0.0132 m -7.3951,-5.10646 q 3.29406,0.15875 5.86052,2.09021 l 1.27,1.11125 q 0.60854,0.60854 1.11125,1.27 2.10344,2.80458 2.10344,6.49552 0,4.55083 -3.21469,7.75229 -3.20146,3.21469 -7.75229,3.21469 -3.69094,0 -6.49552,-2.10344 l -1.27,-1.11125 q -0.62177,-0.62177 -1.11125,-1.27 -1.93146,-2.56646 -2.09021,-5.86052 l -0.0132,-0.62177 q 0,-4.55083 3.21469,-7.76552 3.21469,-3.21469 7.76552,-3.21469 l 0.62177,0.0132"
       id="path28"
       inkscape:connector-curvature="0"
       style="fill:#8e6f49;stroke:none;stroke-width:0.26458332" />
    <path
       d="m -167.95561,104.60445 -0.62177,-0.0132 q -4.55083,0 -7.76552,3.21469 -3.21469,3.21469 -3.21469,7.76552 l 0.0132,0.62177 v 0.19844 q 0,3.95552 2.26219,6.97177 0.51594,0.70114 1.19062,1.3626 l 1.36261,1.19063 q 3.01625,2.26218 6.97177,2.26218 4.89479,0 8.33437,-3.45281 3.45282,-3.43958 3.45282,-8.33437 0,-3.95552 -2.26219,-6.97177 -0.52917,-0.71438 -1.19063,-1.36261 -0.66145,-0.67469 -1.3626,-1.19062 -3.01625,-2.26219 -6.97177,-2.26219 h -0.19844 m 23.20396,-12.845521 -1.24354,-1.42875 1.3626,1.296458 1.28323,1.349375 -1.40229,-1.217083 q 7.3951,9.048751 7.3951,21.166671 0,14.03614 -9.92187,23.95802 -9.90865,9.90864 -23.94479,9.90864 -12.11792,0 -21.16667,-7.3951 l 1.21708,1.41552 -1.34937,-1.28323 -1.29646,-1.34938 1.42875,1.21709 q -7.40833,-9.06198 -7.40833,-21.1799 0,-14.02291 9.92187,-23.944789 9.92188,-9.921876 23.94479,-9.921876 12.13115,0 21.1799,7.408334"
       id="path30"
       inkscape:connector-curvature="0"
       style="fill:#e2be91;stroke:none;stroke-width:0.26458332" />
    <path
       d="m -144.75165,91.758929 q -9.04875,-7.408334 -21.1799,-7.408334 -14.02291,0 -23.94479,9.921876 -9.92187,9.921879 -9.92187,23.944789 0,12.11792 7.40833,21.1799 l -1.42875,-1.21709 q -8.62542,-9.525 -8.62542,-22.60864 0,-14.02292 9.92188,-23.944793 9.92187,-9.921875 23.94479,-9.921875 13.08365,0 22.58219,8.625417 l 1.24354,1.42875 m -23.20396,12.845521 h 0.19844 q 3.95552,0 6.97177,2.26219 0.70114,0.51593 1.3626,1.19062 0.66146,0.64823 1.19063,1.36261 2.26219,3.01625 2.26219,6.97177 0,4.89479 -3.45282,8.33437 -3.43958,3.45281 -8.33437,3.45281 -3.95552,0 -6.97177,-2.26218 l -1.36261,-1.19063 q -0.67468,-0.66146 -1.19062,-1.3626 -2.26219,-3.01625 -2.26219,-6.97177 v -0.19844 q 0.15875,3.29406 2.09021,5.86052 0.48948,0.64823 1.11125,1.27 l 1.27,1.11125 q 2.80458,2.10344 6.49552,2.10344 4.55083,0 7.75229,-3.21469 3.21469,-3.20146 3.21469,-7.75229 0,-3.69094 -2.10344,-6.49552 -0.50271,-0.66146 -1.11125,-1.27 l -1.27,-1.11125 q -2.56646,-1.93146 -5.86052,-2.09021"
       id="path32"
       inkscape:connector-curvature="0"
       style="fill:#eecda4;stroke:none;stroke-width:0.26458332" />
    <path
       d="m -144.75165,91.758929 1.40229,1.217083 q 8.63865,9.511768 8.63865,22.595418 0,14.03614 -9.92188,23.95802 -9.90864,9.90865 -23.94479,9.90865 -13.08365,0 -22.59542,-8.62542 l -1.21708,-1.41552 q 9.04875,7.3951 21.16667,7.3951 14.03614,0 23.94479,-9.90864 9.92187,-9.92188 9.92187,-23.95802 0,-12.11792 -7.3951,-21.166671"
       id="path34"
       inkscape:connector-curvature="0"
       style="fill:#d4af80;stroke:none;stroke-width:0.26458332" />
  </g>
</svg>
