<?xml version="1.0" encoding="UTF-8" standalone="no"?>
<!-- Created with Inkscape (http://www.inkscape.org/) -->

<svg
   xmlns:dc="http://purl.org/dc/elements/1.1/"
   xmlns:cc="http://creativecommons.org/ns#"
   xmlns:rdf="http://www.w3.org/1999/02/22-rdf-syntax-ns#"
   xmlns:svg="http://www.w3.org/2000/svg"
   xmlns="http://www.w3.org/2000/svg"
   xmlns:sodipodi="http://sodipodi.sourceforge.net/DTD/sodipodi-0.dtd"
   xmlns:inkscape="http://www.inkscape.org/namespaces/inkscape"
   width="54.365505mm"
   height="51.091042mm"
   viewBox="0 0 54.365505 51.091042"
   version="1.1"
   id="svg11636"
   inkscape:version="0.92.5 (2060ec1f9f, 2020-04-08)"
   sodipodi:docname="drizzle_1.svg">
  <defs
     id="defs11630" />
  <sodipodi:namedview
     id="base"
     pagecolor="#ffffff"
     bordercolor="#666666"
     borderopacity="1.0"
     inkscape:pageopacity="0.0"
     inkscape:pageshadow="2"
     inkscape:zoom="0.35"
     inkscape:cx="-912.97614"
     inkscape:cy="-214.87857"
     inkscape:document-units="mm"
     inkscape:current-layer="layer1"
     showgrid="false"
     fit-margin-top="0"
     fit-margin-left="0"
     fit-margin-right="0"
     fit-margin-bottom="0"
     inkscape:window-width="1920"
     inkscape:window-height="995"
     inkscape:window-x="0"
     inkscape:window-y="48"
     inkscape:window-maximized="1" />
  <metadata
     id="metadata11633">
    <rdf:RDF>
      <cc:Work
         rdf:about="">
        <dc:format>image/svg+xml</dc:format>
        <dc:type
           rdf:resource="http://purl.org/dc/dcmitype/StillImage" />
        <dc:title></dc:title>
      </cc:Work>
    </rdf:RDF>
  </metadata>
  <g
     inkscape:label="Layer 1"
     inkscape:groupmode="layer"
     id="layer1"
     transform="translate(-197.33505,-40.889003)">
    <path
       inkscape:connector-curvature="0"
       style="fill:#f5f5f5;stroke:none;stroke-width:0.26458332"
       d="m 232.93474,81.065982 q 1.46844,-0.912812 3.09562,-1.547812 2.20928,-0.80698 4.5773,-0.833438 1.66687,0.05292 3.30729,-0.330729 1.29646,-0.251354 1.98437,0.595312 0.68792,0.833438 0.51594,1.905 -0.15875,1.058334 -1.41552,1.455209 -1.38906,0.304271 -2.73844,0.343958 l -2.72521,0.171979 q -2.56645,0.515938 -4.7625,1.891771 -2.27541,1.137708 -4.80218,1.441979 l -3.10886,0.105834 q -1.97114,0.251354 -3.5851,1.164166 -1.60073,0.912813 -3.41313,1.561042 -1.97114,0.621771 -3.75708,1.653646 -1.45521,0.992187 -3.16177,1.322916 -1.13771,0.105834 -1.85208,-0.635 -0.72761,-0.740833 -0.82021,-1.812395 0,-1.984375 0.88635,-3.783542 0.68792,-1.494896 1.83886,-2.394479 1.15093,-0.899584 2.54,-1.693334 1.64041,-1.045104 3.16177,-1.931458 0.97895,-0.542396 1.905,-0.542396 1.69333,0 2.79135,0.701146 0.43656,0.277813 0.42333,0.648229 -0.0132,0.224896 -0.35718,0.436563 -1.52136,0.926041 -2.91042,2.076979 -1.57427,1.362604 -3.38667,2.407708 l -0.99218,0.582084 q 1.08479,-0.502709 2.2225,-0.859896 1.49489,-0.555625 2.84427,-1.375834 2.11666,-1.11125 4.47145,-1.481666 l 3.3999,-0.15875 q 2.03729,-0.119063 3.82323,-1.084792 m 14.6976,-23.508229 0.0529,-0.05292 h -0.0265 l -0.0265,0.05292 m -3.87614,-4.484688 q 1.50812,-0.912812 3.16177,-0.992187 1.65364,-0.06615 2.89719,1.389062 1.21708,1.468438 1.74625,3.386667 0.52916,1.931458 -0.9525,3.479271 -1.29646,1.11125 -2.91042,1.680104 -1.60073,0.555625 -3.06917,1.389063 l -3.65125,2.804583 q -1.17739,0.754062 -2.11666,1.084792 -0.4498,0.14552 -0.62177,-0.132292 -0.70115,-1.150938 -0.70115,-2.553229 0,-0.648229 0.17198,-1.071563 l 0.0265,-0.06615 1.6801,-1.164166 q 1.74625,-1.521354 3.70417,-2.751667 1.66688,-0.833437 3.3999,-1.481667 0.5027,-0.171979 1.03187,-0.502708 l -0.27781,-0.635 -0.34396,-0.568854 -0.2249,-0.198438 -0.0926,0.01323 -0.10583,0.05292 -0.27781,0.132292 -0.62177,0.357187 q -1.40229,0.96573 -2.93688,1.74625 -1.79916,0.80698 -3.70416,1.322917 -1.46844,0.410104 -2.60615,0.608542 -0.51594,0.105833 -0.75406,-0.171979 -1.24354,-1.42875 -1.24354,-2.963334 0,-0.15875 0.25135,-0.291041 0.87313,-0.449792 2.02406,-0.833438 2.19604,-0.489479 4.24657,-1.336146 l 2.87072,-1.733021 M 229.62745,41.629836 q 1.17739,-0.701145 2.38125,-0.740833 2.15635,0.171979 2.42094,1.812396 0.26458,1.613958 -0.60855,3.466042 -0.84666,1.852083 -2.07698,2.672291 l -2.71197,1.283229 -3.63803,2.182813 q -1.82562,0.79375 -3.53218,1.653646 -1.70657,0.873125 -3.13531,2.315104 -2.72521,3.188229 -6.42938,5.172604 -1.62719,0.648229 -3.18823,1.402292 -1.41552,0.912812 -2.87073,1.706562 1.82563,-0.833437 3.77031,-1.349375 l 1.0848,-0.0926 q 0.68791,-0.06615 0.9525,0.502708 0.42333,0.926042 0.42333,1.825625 0,0.701146 -1.00542,1.177396 l -3.53219,1.640417 q -1.41552,0.846666 -2.93687,1.415521 -1.95792,0.515937 -3.88937,-0.224896 -1.95792,-0.740834 -3.175,-2.315104 -1.19063,-1.75948 0,-3.02948 1.20385,-1.25677 2.80458,-1.785937 1.70656,-0.502708 3.33375,-1.217083 1.73302,-1.058334 3.51896,-2.06375 1.81239,-0.80698 3.53218,-1.666875 1.70657,-0.859896 3.14855,-2.301875 2.7252,-3.18823 6.41614,-5.172604 l 0.43656,-0.171984 -2.59291,0.17198 q -1.97115,-0.17198 -3.83646,0.515937 l -2.56646,1.375833 q -2.26219,1.045104 -4.74927,1.031875 l -3.21469,0.145521 q -1.29646,0.211667 -1.9976,-0.635 -0.68792,-0.846667 -0.51594,-1.891771 0.15875,-1.058333 1.42875,-1.42875 1.52136,-0.396875 3.09563,-0.343958 1.00541,0.0926 2.02406,0.03969 1.27,-0.185208 2.26219,-0.727604 l 2.07697,-1.071563 q 2.75167,-1.256771 5.75469,-1.11125 2.34156,0.224896 4.39209,-0.912813 1.08479,-0.701145 2.27541,-1.190625 l 2.4474,-0.806979 2.2225,-1.256771"
       id="path90" />
  </g>
</svg>
