<?xml version="1.0" encoding="UTF-8" standalone="no"?>
<!-- Created with Inkscape (http://www.inkscape.org/) -->

<svg
   xmlns:dc="http://purl.org/dc/elements/1.1/"
   xmlns:cc="http://creativecommons.org/ns#"
   xmlns:rdf="http://www.w3.org/1999/02/22-rdf-syntax-ns#"
   xmlns:svg="http://www.w3.org/2000/svg"
   xmlns="http://www.w3.org/2000/svg"
   xmlns:sodipodi="http://sodipodi.sourceforge.net/DTD/sodipodi-0.dtd"
   xmlns:inkscape="http://www.inkscape.org/namespaces/inkscape"
   width="54.365566mm"
   height="51.091129mm"
   viewBox="0 0 54.365566 51.091129"
   version="1.1"
   id="svg11051"
   inkscape:version="0.92.5 (2060ec1f9f, 2020-04-08)"
   sodipodi:docname="drizzle_0.svg">
  <defs
     id="defs11045" />
  <sodipodi:namedview
     id="base"
     pagecolor="#ffffff"
     bordercolor="#666666"
     borderopacity="1.0"
     inkscape:pageopacity="0.0"
     inkscape:pageshadow="2"
     inkscape:zoom="0.35"
     inkscape:cx="-704.40448"
     inkscape:cy="153.69285"
     inkscape:document-units="mm"
     inkscape:current-layer="layer1"
     showgrid="false"
     fit-margin-top="0"
     fit-margin-left="0"
     fit-margin-right="0"
     fit-margin-bottom="0"
     inkscape:window-width="1920"
     inkscape:window-height="995"
     inkscape:window-x="0"
     inkscape:window-y="48"
     inkscape:window-maximized="1" />
  <metadata
     id="metadata11048">
    <rdf:RDF>
      <cc:Work
         rdf:about="">
        <dc:format>image/svg+xml</dc:format>
        <dc:type
           rdf:resource="http://purl.org/dc/dcmitype/StillImage" />
        <dc:title></dc:title>
      </cc:Work>
    </rdf:RDF>
  </metadata>
  <g
     inkscape:label="Layer 1"
     inkscape:groupmode="layer"
     id="layer1"
     transform="translate(-142.15047,-138.40677)">
    <path
       inkscape:connector-curvature="0"
       style="fill:#413524;stroke:none;stroke-width:0.26458332"
       d="m 192.50074,155.02269 h -0.0265 l -0.0265,0.0529 0.0529,-0.0529 m -24.28875,22.37052 q 0.43656,0.27782 0.42333,0.64823 -0.0132,0.2249 -0.35719,0.43657 -1.52135,0.92604 -2.91041,2.07698 -1.57427,1.3626 -3.38667,2.4077 -0.50271,0.27782 -0.99219,0.58209 1.08479,-0.50271 2.2225,-0.8599 1.4949,-0.55562 2.84427,-1.37583 2.11667,-1.11125 4.47146,-1.48167 l 3.3999,-0.15875 q 2.03729,-0.11906 3.82323,-1.08479 1.46843,-0.91281 3.09562,-1.54781 2.20927,-0.80698 4.57729,-0.83344 1.66688,0.0529 3.3073,-0.33073 1.29645,-0.25135 1.98437,0.59531 0.68792,0.83344 0.51594,1.905 -0.15875,1.05834 -1.41552,1.45521 -1.38907,0.30427 -2.73844,0.34396 l -2.72521,0.17198 q -2.56646,0.51594 -4.7625,1.89177 -2.27542,1.13771 -4.80219,1.44198 l -3.10885,0.10583 q -1.97115,0.25136 -3.5851,1.16417 -1.60073,0.91281 -3.41313,1.56104 -1.97115,0.62177 -3.75708,1.65365 -1.45521,0.99218 -3.16177,1.32291 -1.13771,0.10584 -1.85209,-0.635 -0.7276,-0.74083 -0.82021,-1.81239 0,-1.98438 0.88636,-3.78354 0.68792,-1.4949 1.83885,-2.39448 1.15094,-0.89959 2.54,-1.69334 1.64042,-1.0451 3.16177,-1.93146 0.97896,-0.54239 1.905,-0.54239 1.69334,0 2.79136,0.70114 m 23.52146,-27.79447 q 1.65364,-0.0661 2.89718,1.38906 1.21709,1.46844 1.74625,3.38666 0.52917,1.93146 -0.9525,3.47928 -1.29645,1.11125 -2.91041,1.6801 -1.60073,0.55562 -3.06917,1.38906 -1.83885,1.36261 -3.65125,2.80459 -1.1774,0.75406 -2.11667,1.08479 -0.44979,0.14552 -0.62177,-0.13229 -0.70114,-1.15094 -0.70114,-2.55323 0,-0.64823 0.17198,-1.07157 l 0.0265,-0.0662 1.6801,-1.16416 q 1.74625,-1.52136 3.70417,-2.75167 1.66687,-0.83344 3.39989,-1.48167 0.50271,-0.17198 1.03188,-0.5027 l -0.27781,-0.635 -0.34396,-0.56886 -0.2249,-0.19844 -0.0926,0.0132 -0.10583,0.0529 -0.27781,0.1323 -0.62178,0.35718 q -1.40229,0.96573 -2.93687,1.74625 -1.79917,0.80698 -3.70417,1.32292 -1.46843,0.4101 -2.60614,0.60854 -0.51594,0.10583 -0.75407,-0.17198 -1.24354,-1.42875 -1.24354,-2.96333 0,-0.15875 0.25136,-0.29104 0.87312,-0.44979 2.02406,-0.83344 2.19604,-0.48948 4.24656,-1.33615 l 2.87073,-1.73302 q 1.50813,-0.91281 3.16177,-0.99218 m -48.98761,15.05479 q -1.19062,-1.75948 0,-3.02948 1.20386,-1.25677 2.80458,-1.78594 1.70657,-0.50271 3.33375,-1.21708 1.73303,-1.05834 3.51896,-2.06375 1.8124,-0.80698 3.53219,-1.66688 1.70656,-0.85989 3.14854,-2.30187 2.72521,-3.18823 6.41615,-5.17261 l 0.43656,-0.17198 -2.59292,0.17198 q -1.97114,-0.17198 -3.83645,0.51594 l -2.56646,1.37583 q -2.26219,1.04511 -4.74927,1.03188 l -3.21469,0.14552 q -1.29646,0.21167 -1.99761,-0.635 -0.68791,-0.84667 -0.51593,-1.89177 0.15875,-1.05833 1.42875,-1.42875 1.52135,-0.39688 3.09562,-0.34396 1.00542,0.0926 2.02407,0.0397 1.27,-0.18521 2.26218,-0.72761 0.97896,-0.54239 2.07698,-1.07156 2.75167,-1.25677 5.75469,-1.11125 2.34156,0.2249 4.39208,-0.91281 1.08479,-0.70115 2.27542,-1.19063 1.24354,-0.35718 2.4474,-0.80698 l 2.2225,-1.25677 q 1.17739,-0.70114 2.38125,-0.74083 2.15635,0.17198 2.42093,1.8124 0.26459,1.61395 -0.60854,3.46604 -0.84667,1.85208 -2.07698,2.67229 -1.32291,0.67469 -2.71198,1.28323 -1.78593,1.13771 -3.63802,2.18281 -1.82562,0.79375 -3.53219,1.65365 -1.70656,0.87312 -3.13531,2.3151 -2.72521,3.18823 -6.42937,5.17261 -1.62719,0.64822 -3.18823,1.40229 -1.41552,0.91281 -2.87073,1.70656 1.82562,-0.83344 3.77031,-1.34938 0.74083,-0.19843 1.08479,-0.0926 0.68792,-0.0661 0.9525,0.50271 0.42334,0.92604 0.42334,1.82563 0,0.70114 -1.00542,1.17739 l -3.53219,1.64042 q -1.41552,0.84667 -2.93687,1.41552 -1.95792,0.51594 -3.88938,-0.22489 -1.95792,-0.74084 -3.175,-2.31511"
       id="path88" />
  </g>
</svg>
