<?xml version="1.0" encoding="UTF-8" standalone="no"?>
<!-- Created with Inkscape (http://www.inkscape.org/) -->

<svg
   xmlns:dc="http://purl.org/dc/elements/1.1/"
   xmlns:cc="http://creativecommons.org/ns#"
   xmlns:rdf="http://www.w3.org/1999/02/22-rdf-syntax-ns#"
   xmlns:svg="http://www.w3.org/2000/svg"
   xmlns="http://www.w3.org/2000/svg"
   xmlns:sodipodi="http://sodipodi.sourceforge.net/DTD/sodipodi-0.dtd"
   xmlns:inkscape="http://www.inkscape.org/namespaces/inkscape"
   width="60.53664mm"
   height="57.878857mm"
   viewBox="0 0 60.53664 57.878857"
   version="1.1"
   id="svg8086"
   inkscape:version="0.92.5 (2060ec1f9f, 2020-04-08)"
   sodipodi:docname="icing_9.svg">
  <defs
     id="defs8080" />
  <sodipodi:namedview
     id="base"
     pagecolor="#ffffff"
     bordercolor="#666666"
     borderopacity="1.0"
     inkscape:pageopacity="0.0"
     inkscape:pageshadow="2"
     inkscape:zoom="0.35"
     inkscape:cx="-869.88569"
     inkscape:cy="280.80597"
     inkscape:document-units="mm"
     inkscape:current-layer="layer1"
     showgrid="false"
     fit-margin-top="0"
     fit-margin-left="0"
     fit-margin-right="0"
     fit-margin-bottom="0"
     inkscape:window-width="1920"
     inkscape:window-height="995"
     inkscape:window-x="0"
     inkscape:window-y="48"
     inkscape:window-maximized="1" />
  <metadata
     id="metadata8083">
    <rdf:RDF>
      <cc:Work
         rdf:about="">
        <dc:format>image/svg+xml</dc:format>
        <dc:type
           rdf:resource="http://purl.org/dc/dcmitype/StillImage" />
        <dc:title></dc:title>
      </cc:Work>
    </rdf:RDF>
  </metadata>
  <g
     inkscape:label="Layer 1"
     inkscape:groupmode="layer"
     id="layer1"
     transform="translate(-185.93404,-165.25105)">
    <path
       inkscape:connector-curvature="0"
       style="fill:#e2bb89;stroke:none;stroke-width:0.26458332"
       d="m 229.92103,170.15643 -0.58209,-0.33073 q -0.92604,-0.82021 -1.74625,-1.89177 -1.86531,-0.21167 -3.94229,0.74083 -2.44739,1.12448 -4.80219,1.30969 -2.32833,-0.19844 -4.78895,-1.30969 -2.43417,-1.11125 -4.56407,-0.635 -2.06375,0.88635 -3.39989,3.22792 -1.30969,2.34156 -3.01625,3.84968 -1.95792,1.1774 -4.60375,1.70657 -2.63261,0.54239 -4.11427,2.2225 -1.12448,1.87854 -0.83344,4.56406 0.30427,2.67229 -0.19844,4.92125 -0.89958,2.06375 -2.71198,4.03489 -1.82562,1.99761 -2.03729,4.2598 0.21167,2.28864 2.03729,4.27302 1.8124,1.98437 2.71198,4.02166 0.50271,2.27542 0.19844,4.94771 -0.0926,0.80698 -0.0397,1.54781 2.4474,0.5424 4.29948,1.65365 1.12448,0.97896 2.07698,2.32833 -1.77271,-0.93927 -4.0349,-1.40229 -1.08479,-0.22489 -1.97114,-0.635 -1.27,-0.59531 -2.14313,-1.57427 -0.30427,-0.50271 -0.50271,-1.07156 -0.54239,-1.54781 -0.33072,-3.4925 0.30427,-2.67229 -0.19844,-4.94771 -0.89959,-2.03729 -2.71198,-4.02167 -1.82563,-1.98437 -2.03729,-4.27302 0.21166,-2.26218 2.03729,-4.25979 1.81239,-1.97114 2.71198,-4.03489 0.50271,-2.24896 0.19844,-4.92125 -0.29105,-2.68553 0.83343,-4.56407 1.48167,-1.6801 4.11427,-2.2225 2.64584,-0.52916 4.60375,-1.70656 1.70657,-1.50812 3.01625,-3.84969 1.33615,-2.34156 3.3999,-3.22791 2.1299,-0.47625 4.56406,0.635 2.46063,1.11125 4.78896,1.30968 2.35479,-0.1852 4.80219,-1.30968 2.43416,-1.11125 4.56406,-0.635 0.29104,0.11906 0.56885,0.27781 1.48167,0.83344 2.55323,2.50031 l 0.0794,0.14552 0.18521,0.30427 q 0.46303,0.82021 0.96574,1.53459 m -27.41084,48.08802 0.56886,0.3175 q 0.93927,0.82021 1.75948,1.89177 1.85208,0.19844 3.92906,-0.75406 2.46062,-1.11125 4.78896,-1.32292 2.35479,0.21167 4.80219,1.32292 2.43416,1.11125 4.56406,0.64822 2.06375,-0.88635 3.38666,-3.25437 1.32292,-2.32833 3.02948,-3.82323 1.98438,-1.19062 4.61698,-1.71979 2.61938,-0.52917 4.08781,-2.20927 1.12448,-1.905 0.83344,-4.56406 -0.30427,-2.6723 0.2249,-4.94771 0.87312,-2.03729 2.69875,-4.02167 1.81239,-1.9976 2.02406,-4.27302 l -0.0794,-0.60854 q -0.38365,-1.91823 -1.94469,-3.65125 -1.82562,-1.97115 -2.69875,-4.0349 -0.52916,-2.24896 -0.22489,-4.92125 l 0.0132,-0.0926 0.0397,-1.46844 q -2.43418,-0.5424 -4.29949,-1.64042 -1.11125,-0.97895 -2.06375,-2.3151 1.78594,0.92604 4.0349,1.37583 l 0.17197,0.0397 q 0.96573,0.21167 1.77271,0.59531 1.27,0.59532 2.14313,1.5875 l 0.50271,1.05834 0.22489,0.76729 q 0.26459,1.24354 0.10584,2.73844 -0.30428,2.67229 0.22489,4.92124 0.87313,2.06375 2.69875,4.0349 l 0.80698,1.00542 q 1.05833,1.54781 1.21708,3.25437 -0.21166,2.27542 -2.02406,4.27302 -1.82562,1.98438 -2.69875,4.02167 -0.52917,2.27542 -0.22489,4.94771 0.29104,2.65906 -0.83344,4.56406 -1.46844,1.68011 -4.08781,2.20927 -2.63261,0.52917 -4.61698,1.71979 -1.70657,1.4949 -3.02948,3.82323 -1.32292,2.36802 -3.38667,3.25438 -2.12989,0.46302 -4.56406,-0.64823 -2.4474,-1.11125 -4.80219,-1.32292 -2.32833,0.21167 -4.78896,1.32292 -2.43416,1.11125 -4.56406,0.64823 -0.29104,-0.11906 -0.55562,-0.26459 -1.54782,-0.87312 -2.64584,-2.64583 l -0.19844,-0.34396 -0.93927,-1.49489"
       id="path80" />
    <path
       inkscape:connector-curvature="0"
       style="fill:#dbb17d;stroke:none;stroke-width:0.26458332"
       d="m 199.86436,215.59861 q -0.9525,-1.34937 -2.07698,-2.32833 -1.85208,-1.11125 -4.29948,-1.65365 -0.0529,-0.74083 0.0397,-1.54781 0.30427,-2.67229 -0.19844,-4.94771 -0.89958,-2.03729 -2.71198,-4.02166 -1.82562,-1.98438 -2.03729,-4.27302 0.21167,-2.26219 2.03729,-4.2598 1.8124,-1.97114 2.71198,-4.03489 0.50271,-2.24896 0.19844,-4.92125 -0.29104,-2.68552 0.83344,-4.56406 1.48166,-1.68011 4.11427,-2.2225 2.64583,-0.52917 4.60375,-1.70657 1.70656,-1.50812 3.01625,-3.84968 1.33614,-2.34157 3.39989,-3.22792 2.1299,-0.47625 4.56407,0.635 2.46062,1.11125 4.78895,1.30969 2.3548,-0.18521 4.80219,-1.30969 2.07698,-0.9525 3.94229,-0.74083 0.82021,1.07156 1.74625,1.89177 l 0.58209,0.33073 q 0.9525,1.33614 2.06375,2.3151 l 0.58208,0.33073 q 0.9525,1.33615 2.06375,2.3151 1.86531,1.09802 4.29948,1.64042 l -0.0397,1.46844 -0.0132,0.0926 q -0.30427,2.67229 0.2249,4.92125 0.87312,2.06375 2.69875,4.03489 1.56104,1.73302 1.94468,3.65125 l 0.0794,0.60855 q -0.21166,2.27541 -2.02406,4.27302 -1.82562,1.98437 -2.69875,4.02166 -0.52917,2.27542 -0.2249,4.94771 0.29105,2.65906 -0.83343,4.56406 -1.46844,1.68011 -4.08782,2.20927 -2.6326,0.52917 -4.61697,1.7198 -1.70657,1.49489 -3.02948,3.82323 -1.32292,2.36802 -3.38667,3.25437 -2.1299,0.46302 -4.56406,-0.64823 -2.4474,-1.11125 -4.80219,-1.32292 -2.32833,0.21167 -4.78896,1.32292 -2.07698,0.9525 -3.92906,0.75406 -0.8202,-1.07155 -1.75947,-1.89176 l -0.56886,-0.3175 q -0.9525,-1.34938 -2.07698,-2.32834 l -0.56885,-0.3175 m 26.72292,-33.9725 q -0.48948,-0.21166 -0.91282,-0.46302 -0.76729,-0.68791 -1.38906,-1.64041 l -0.34396,-0.5424 -0.0794,-0.13229 -0.39687,-0.62177 q -0.70115,-0.91281 -1.64042,-1.30969 l -0.18521,-0.0397 q -1.19063,-0.18521 -2.55323,0.42333 -1.45521,0.66146 -2.88396,0.78052 -1.38906,-0.11906 -2.87073,-0.78052 -1.45521,-0.66145 -2.73844,-0.38364 -1.23031,0.52916 -2.03729,1.93146 -0.79375,1.38906 -1.79916,2.30187 l -0.0132,0.0132 q -1.1774,0.71438 -2.7649,1.01865 -1.57427,0.33073 -2.47385,1.33614 -0.66146,1.13771 -0.48948,2.73844 0.1852,1.60073 -0.11907,2.9501 -0.54239,1.24355 -1.62718,2.42094 -1.09802,1.20386 -1.21709,2.55323 0.11907,1.37583 1.21709,2.56646 1.08479,1.19062 1.62718,2.42094 0.30427,1.3626 0.11907,2.96333 -0.0794,0.7276 0.0132,1.3626 0.11906,0.75407 0.47625,1.37584 0.80698,0.91281 2.16958,1.27 l 0.30427,0.0661 q 1.01865,0.19843 1.87854,0.58208 0.46302,0.19844 0.88636,0.44979 0.76729,0.67469 1.40229,1.62719 l 0.35719,0.56885 0.0529,0.0926 q 0.80697,1.41552 2.03729,1.94469 l 0.19843,0.0397 q 1.19063,0.18521 2.54,-0.42333 1.48167,-0.66146 2.87073,-0.78052 1.42875,0.11906 2.88396,0.78052 1.46844,0.66146 2.73844,0.38364 1.24354,-0.52916 2.03729,-1.94468 0.79375,-1.38907 1.8124,-2.28865 1.19062,-0.7276 2.76489,-1.03188 1.57427,-0.3175 2.47386,-1.33614 0.67468,-1.13771 0.48948,-2.73844 -0.17198,-1.60073 0.13229,-2.96333 0.52916,-1.23031 1.61396,-2.42094 1.09802,-1.19062 1.21708,-2.56646 -0.0926,-1.00541 -0.71438,-1.93146 l -0.50271,-0.62177 -0.59531,-0.70114 q -0.64823,-0.84667 -1.01865,-1.71979 -0.30427,-1.34938 -0.13229,-2.95011 0.0794,-0.7276 0,-1.34937 -0.11906,-0.76729 -0.48948,-1.38907 -0.80698,-0.89958 -2.15635,-1.25677 l -0.3175,-0.0794 q -1.00542,-0.19843 -1.85208,-0.55562"
       id="path82" />
  </g>
</svg>
