<?xml version="1.0" encoding="UTF-8" standalone="no"?>
<!-- Created with Inkscape (http://www.inkscape.org/) -->

<svg
   xmlns:dc="http://purl.org/dc/elements/1.1/"
   xmlns:cc="http://creativecommons.org/ns#"
   xmlns:rdf="http://www.w3.org/1999/02/22-rdf-syntax-ns#"
   xmlns:svg="http://www.w3.org/2000/svg"
   xmlns="http://www.w3.org/2000/svg"
   xmlns:sodipodi="http://sodipodi.sourceforge.net/DTD/sodipodi-0.dtd"
   xmlns:inkscape="http://www.inkscape.org/namespaces/inkscape"
   width="60.536667mm"
   height="57.878853mm"
   viewBox="0 0 60.536667 57.878853"
   version="1.1"
   id="svg1542"
   inkscape:version="0.92.5 (2060ec1f9f, 2020-04-08)"
   sodipodi:docname="icing_7.svg">
  <defs
     id="defs1536" />
  <sodipodi:namedview
     id="base"
     pagecolor="#ffffff"
     bordercolor="#666666"
     borderopacity="1.0"
     inkscape:pageopacity="0.0"
     inkscape:pageshadow="2"
     inkscape:zoom="0.35"
     inkscape:cx="227.25716"
     inkscape:cy="-222.05121"
     inkscape:document-units="mm"
     inkscape:current-layer="layer1"
     showgrid="false"
     fit-margin-top="0"
     fit-margin-left="0"
     fit-margin-right="0"
     fit-margin-bottom="0"
     inkscape:window-width="1920"
     inkscape:window-height="995"
     inkscape:window-x="0"
     inkscape:window-y="48"
     inkscape:window-maximized="1" />
  <metadata
     id="metadata1539">
    <rdf:RDF>
      <cc:Work
         rdf:about="">
        <dc:format>image/svg+xml</dc:format>
        <dc:type
           rdf:resource="http://purl.org/dc/dcmitype/StillImage" />
        <dc:title></dc:title>
      </cc:Work>
    </rdf:RDF>
  </metadata>
  <g
     inkscape:label="Layer 1"
     inkscape:groupmode="layer"
     id="layer1"
     transform="translate(104.35167,-32.203433)">
    <path
       d="m -90.421355,82.550995 q -1.772708,-0.93927 -4.034895,-1.402291 -1.084792,-0.224896 -1.971146,-0.635 -1.27,-0.595313 -2.143125,-1.574271 -0.304271,-0.502708 -0.502708,-1.071563 -0.542396,-1.547812 -0.33073,-3.4925 0.304271,-2.672291 -0.198437,-4.947708 -0.899584,-2.037292 -2.711984,-4.021667 -1.82562,-1.984375 -2.03729,-4.27302 0.21167,-2.262188 2.03729,-4.259792 1.8124,-1.971146 2.711984,-4.034896 0.502708,-2.248958 0.198437,-4.92125 -0.291041,-2.685521 0.833438,-4.564062 1.481667,-1.680105 4.114271,-2.222501 2.645833,-0.529166 4.60375,-1.706562 1.706562,-1.508125 3.01625,-3.849688 1.336145,-2.341562 3.399895,-3.227916 2.129896,-0.47625 4.564063,0.635 2.460625,1.11125 4.788958,1.309687 2.354792,-0.185208 4.802188,-1.309687 2.434166,-1.11125 4.564062,-0.635 0.291042,0.119062 0.568854,0.277812 1.481667,0.833438 2.55323,2.500313 l 0.07937,0.14552 0.185208,0.304271 q 0.463026,0.820209 0.965734,1.534584 l -0.582083,-0.33073 q -0.926042,-0.820208 -1.74625,-1.89177 -1.865313,-0.211667 -3.942292,0.740833 -2.447396,1.124479 -4.802187,1.309687 -2.328334,-0.198437 -4.788959,-1.309687 -2.434166,-1.11125 -4.564062,-0.635 -2.06375,0.886354 -3.399896,3.227917 -1.309687,2.341562 -3.01625,3.849687 -1.957917,1.177396 -4.60375,1.706563 -2.632604,0.542396 -4.114271,2.2225 -1.124479,1.878542 -0.833437,4.564063 0.304271,2.672291 -0.198438,4.921249 -0.899583,2.06375 -2.711979,4.034896 -1.825628,1.997604 -2.037288,4.259792 0.21166,2.288646 2.037288,4.273021 1.812396,1.984375 2.711979,4.021666 0.502709,2.275417 0.198438,4.947709 -0.0926,0.806979 -0.03969,1.547812 2.447396,0.542396 4.299479,1.653646 1.12448,0.978958 2.076979,2.328333 m 32.7025,-42.796354 q 1.785938,0.926042 4.034896,1.375833 l 0.171979,0.03969 q 0.96573,0.211667 1.772709,0.595313 1.27,0.595313 2.143125,1.587501 l 0.502708,1.058333 0.224896,0.767292 q 0.264583,1.243541 0.105833,2.738437 -0.304271,2.672291 0.224896,4.921249 0.873125,2.06375 2.69875,4.034896 l 0.806979,1.005417 q 1.058334,1.547812 1.217084,3.254375 -0.211667,2.275416 -2.024063,4.273021 -1.825625,1.984375 -2.69875,4.021667 -0.529167,2.275416 -0.224896,4.947707 0.291042,2.659064 -0.833437,4.564064 -1.468438,1.680104 -4.087813,2.209271 -2.632604,0.529166 -4.616979,1.719791 -1.706562,1.494896 -3.029479,3.82323 -1.322917,2.36802 -3.386667,3.254375 -2.129896,0.46302 -4.564062,-0.64823 -2.447396,-1.11125 -4.802188,-1.322916 -2.328333,0.211666 -4.788958,1.322916 -2.434167,1.11125 -4.564063,0.64823 -0.291041,-0.119063 -0.555625,-0.264584 -1.547812,-0.873125 -2.645833,-2.645833 l -0.198437,-0.343958 -0.939271,-1.494896 0.568854,0.3175 q 0.939271,0.820208 1.759479,1.891771 1.852084,0.198437 3.929063,-0.754063 2.460625,-1.11125 4.788958,-1.322917 2.354792,0.211667 4.802188,1.322917 2.434166,1.11125 4.564062,0.648229 2.06375,-0.886354 3.386667,-3.254375 1.322916,-2.328333 3.029479,-3.823229 1.984375,-1.190625 4.616979,-1.719792 2.619375,-0.529166 4.087812,-2.20927 1.12448,-1.905 0.833438,-4.564063 -0.304271,-2.672292 0.224896,-4.947708 0.873125,-2.037292 2.69875,-4.021667 1.812396,-1.997604 2.024062,-4.273021 l -0.07937,-0.608541 q -0.383646,-1.91823 -1.944687,-3.65125 -1.825625,-1.971146 -2.69875,-4.034896 -0.529167,-2.248959 -0.224896,-4.92125 l 0.01323,-0.0926 0.03969,-1.468438 q -2.434175,-0.5424 -4.299488,-1.640421 -1.111249,-0.978958 -2.06375,-2.315104"
       id="path68"
       inkscape:connector-curvature="0"
       style="fill:#ffffff;stroke:none;stroke-width:0.26458332" />
    <path
       d="m -57.718855,39.754641 q 0.9525,1.336146 2.06375,2.315104 1.865313,1.098021 4.29948,1.640417 l -0.03969,1.468438 -0.01323,0.0926 q -0.304271,2.672291 0.224896,4.92125 0.873125,2.06375 2.69875,4.034896 1.561041,1.73302 1.944687,3.65125 l 0.07937,0.608541 q -0.211666,2.275417 -2.024062,4.273021 -1.825625,1.984375 -2.69875,4.021667 -0.529167,2.275416 -0.224896,4.947708 0.291042,2.659063 -0.833438,4.564063 -1.468437,1.680104 -4.087812,2.20927 -2.632604,0.529167 -4.616979,1.719792 -1.706563,1.494896 -3.029479,3.823229 -1.322917,2.368021 -3.386667,3.254375 -2.129896,0.463021 -4.564063,-0.648229 -2.447395,-1.11125 -4.802187,-1.322917 -2.328333,0.211667 -4.788958,1.322917 -2.07698,0.9525 -3.929063,0.754063 -0.8202,-1.071559 -1.759471,-1.891767 l -0.568854,-0.3175 q -0.9525,-1.349375 -2.076979,-2.328334 l -0.568854,-0.3175 q -0.9525,-1.349375 -2.07698,-2.328333 -1.852083,-1.11125 -4.299479,-1.653646 -0.05292,-0.740833 0.03969,-1.547812 0.304271,-2.672292 -0.198438,-4.947709 -0.899583,-2.037291 -2.711979,-4.021666 -1.82563,-1.984375 -2.03729,-4.273021 0.21166,-2.262188 2.03729,-4.259792 1.812396,-1.971146 2.711979,-4.034896 0.502709,-2.248958 0.198438,-4.921249 -0.291042,-2.685521 0.833437,-4.564063 1.481667,-1.680104 4.114271,-2.2225 2.645833,-0.529167 4.60375,-1.706563 1.706562,-1.508125 3.01625,-3.849687 1.336146,-2.341563 3.399896,-3.227917 2.129896,-0.47625 4.564062,0.635 2.460625,1.11125 4.788959,1.309687 2.354791,-0.185208 4.802187,-1.309687 2.076979,-0.9525 3.942292,-0.740833 0.820208,1.071562 1.74625,1.89177 l 0.582083,0.33073 q 0.9525,1.336145 2.06375,2.315104 l 0.582083,0.330729 m -8.704791,6.04573 -0.396875,-0.621771 q -0.701146,-0.912813 -1.640417,-1.309688 l -0.185208,-0.03969 q -1.190625,-0.185209 -2.553229,0.423333 -1.455209,0.661458 -2.883959,0.780521 -1.389062,-0.119063 -2.870729,-0.780521 -1.455208,-0.661458 -2.738437,-0.383646 -1.230313,0.529167 -2.037292,1.931458 -0.79375,1.389063 -1.799167,2.301875 l -0.01323,0.01323 q -1.177396,0.714375 -2.764896,1.018645 -1.57427,0.33073 -2.473854,1.336146 -0.661458,1.137709 -0.489479,2.738438 0.185208,1.600729 -0.119062,2.950104 -0.542396,1.243542 -1.627188,2.420937 -1.098021,1.203855 -1.217083,2.55323 0.119062,1.375833 1.217083,2.566458 1.084792,1.190625 1.627188,2.420938 0.30427,1.362604 0.119062,2.963333 -0.07938,0.727604 0.01323,1.362604 0.119063,0.754062 0.47625,1.375833 0.806979,0.912813 2.169583,1.27 l 0.304271,0.06615 q 1.018646,0.198438 1.878542,0.582083 0.463021,0.198438 0.886354,0.449792 0.767292,0.674688 1.402292,1.627188 l 0.357187,0.568854 0.05292,0.0926 q 0.806979,1.415521 2.037292,1.944687 l 0.198437,0.03969 q 1.190625,0.185208 2.54,-0.423333 1.481667,-0.661459 2.870729,-0.780521 1.42875,0.119062 2.883959,0.780521 1.468437,0.661458 2.738437,0.383645 1.243542,-0.529166 2.037292,-1.944687 0.79375,-1.389063 1.812396,-2.288646 1.190625,-0.727604 2.764895,-1.031875 1.574271,-0.3175 2.473855,-1.336146 0.674687,-1.137708 0.489479,-2.738437 -0.171979,-1.600729 0.132291,-2.963334 0.529167,-1.230312 1.613959,-2.420937 1.098021,-1.190625 1.217083,-2.566458 -0.0926,-1.005417 -0.714375,-1.931459 l -0.502711,-0.62177 -0.595313,-0.701145 q -0.648229,-0.846667 -1.018646,-1.719792 -0.30427,-1.349375 -0.132291,-2.950104 0.07937,-0.727604 0,-1.349375 -0.119063,-0.767292 -0.489479,-1.389063 -0.80698,-0.899583 -2.156355,-1.256771 l -0.3175,-0.07938 q -1.005416,-0.198432 -1.852083,-0.55562 -0.489479,-0.211666 -0.912812,-0.46302 -0.767292,-0.687917 -1.389063,-1.640417 l -0.343958,-0.542396 -0.07937,-0.132292"
       id="path70"
       inkscape:connector-curvature="0"
       style="fill:#eeeeee;stroke:none;stroke-width:0.26458332" />
  </g>
</svg>
