<?xml version="1.0" encoding="UTF-8" standalone="no"?>
<!-- Created with Inkscape (http://www.inkscape.org/) -->

<svg
   xmlns:dc="http://purl.org/dc/elements/1.1/"
   xmlns:cc="http://creativecommons.org/ns#"
   xmlns:rdf="http://www.w3.org/1999/02/22-rdf-syntax-ns#"
   xmlns:svg="http://www.w3.org/2000/svg"
   xmlns="http://www.w3.org/2000/svg"
   xmlns:sodipodi="http://sodipodi.sourceforge.net/DTD/sodipodi-0.dtd"
   xmlns:inkscape="http://www.inkscape.org/namespaces/inkscape"
   width="59.795872mm"
   height="59.79591mm"
   viewBox="0 0 59.795872 59.79591"
   version="1.1"
   id="svg4520"
   inkscape:version="0.92.5 (2060ec1f9f, 2020-04-08)"
   sodipodi:docname="icing_3.svg">
  <defs
     id="defs4514" />
  <sodipodi:namedview
     id="base"
     pagecolor="#ffffff"
     bordercolor="#666666"
     borderopacity="1.0"
     inkscape:pageopacity="0.0"
     inkscape:pageshadow="2"
     inkscape:zoom="0.35"
     inkscape:cx="574.42857"
     inkscape:cy="-81.285631"
     inkscape:document-units="mm"
     inkscape:current-layer="layer1"
     showgrid="false"
     fit-margin-top="0"
     fit-margin-left="0"
     fit-margin-right="0"
     fit-margin-bottom="0"
     inkscape:window-width="1920"
     inkscape:window-height="995"
     inkscape:window-x="0"
     inkscape:window-y="48"
     inkscape:window-maximized="1" />
  <metadata
     id="metadata4517">
    <rdf:RDF>
      <cc:Work
         rdf:about="">
        <dc:format>image/svg+xml</dc:format>
        <dc:type
           rdf:resource="http://purl.org/dc/dcmitype/StillImage" />
        <dc:title></dc:title>
      </cc:Work>
    </rdf:RDF>
  </metadata>
  <g
     inkscape:label="Layer 1"
     inkscape:groupmode="layer"
     id="layer1"
     transform="translate(196.20744,-67.530598)">
    <path
       inkscape:connector-curvature="0"
       style="fill:#e2bb89;stroke:none;stroke-width:0.26458332"
       d="m -146.58485,74.938988 0.19844,0.185209 v 0.01323 l 1.23031,1.164166 1.13771,1.190625 v 0.01323 l 0.0794,0.07937 q 7.54063,8.360834 7.5274,19.84375 0,12.395732 -8.74448,21.166672 -8.75771,8.73125 -21.15344,8.73125 -11.49614,0.0132 -19.85698,-7.5274 l -0.0397,-0.0397 -0.0265,-0.0265 h -0.0132 l -1.19063,-1.13771 -1.16417,-1.23031 -0.15875,-0.15875 -0.0529,-0.0529 q -7.3951,-8.33437 -7.3951,-19.724682 0,-12.3825 8.77094,-21.126979 8.74448,-8.770937 21.12698,-8.770937 11.39031,-0.01323 19.72468,7.408333 m 7.5274,19.84375 q 0.0132,-10.490729 -6.28385,-18.375312 -7.87136,-6.244167 -18.3224,-6.230938 -12.3825,0 -21.12698,8.770937 -8.77094,8.74448 -8.77094,21.126988 0,10.45104 6.23094,18.33562 7.88458,6.28385 18.37531,6.27063 12.39573,0 21.15344,-8.73125 8.74448,-8.77094 8.74448,-21.166675"
       id="path12" />
    <path
       inkscape:connector-curvature="0"
       style="fill:#dbb17d;stroke:none;stroke-width:0.26458332"
       d="m -139.05745,94.782738 q 0,12.395732 -8.74448,21.166672 -8.75771,8.73125 -21.15344,8.73125 -10.49073,0.0132 -18.37531,-6.27063 -6.23094,-7.88458 -6.23094,-18.33562 0,-12.382505 8.77094,-21.126985 8.74448,-8.770937 21.12698,-8.770937 10.45104,-0.01323 18.3224,6.230938 6.29708,7.884583 6.28385,18.375312 m -27.25208,-12.303125 q -6.19125,0 -10.55688,4.392083 -4.39208,4.365625 -4.39208,10.556875 l 0.0132,0.740834 0.0132,0.07937 q 0.21166,4.392085 2.72521,7.844895 l 0.15875,0.2249 0.19843,0.26458 q 0.56886,0.70115 1.28323,1.41552 l 0.0132,0.0132 q 0.64823,0.635 1.34938,1.21708 l 0.29104,0.2249 0.0265,0.0132 q 3.83646,2.87073 8.87677,2.89719 6.19125,0 10.5701,-4.36563 4.36563,-4.37885 4.36563,-10.570102 -0.0265,-5.040312 -2.89719,-8.876771 l -0.0132,-0.02646 -0.22489,-0.291042 -1.21709,-1.349375 -0.0132,-0.01323 -1.41552,-1.283229 -0.26458,-0.198437 -0.2249,-0.15875 q -3.45281,-2.513536 -7.84489,-2.725203 l -0.0926,-0.01323 -0.72761,-0.01323"
       id="path14" />
  </g>
</svg>
