<?xml version="1.0" encoding="UTF-8" standalone="no"?>
<!-- Created with Inkscape (http://www.inkscape.org/) -->

<svg
   xmlns:dc="http://purl.org/dc/elements/1.1/"
   xmlns:cc="http://creativecommons.org/ns#"
   xmlns:rdf="http://www.w3.org/1999/02/22-rdf-syntax-ns#"
   xmlns:svg="http://www.w3.org/2000/svg"
   xmlns="http://www.w3.org/2000/svg"
   xmlns:sodipodi="http://sodipodi.sourceforge.net/DTD/sodipodi-0.dtd"
   xmlns:inkscape="http://www.inkscape.org/namespaces/inkscape"
   width="60.536667mm"
   height="57.878868mm"
   viewBox="0 0 60.536667 57.878868"
   version="1.1"
   id="svg7492"
   inkscape:version="0.92.5 (2060ec1f9f, 2020-04-08)"
   sodipodi:docname="icing_8.svg">
  <defs
     id="defs7486" />
  <sodipodi:namedview
     id="base"
     pagecolor="#ffffff"
     bordercolor="#666666"
     borderopacity="1.0"
     inkscape:pageopacity="0.0"
     inkscape:pageshadow="2"
     inkscape:zoom="0.35"
     inkscape:cx="-115.6"
     inkscape:cy="780.80598"
     inkscape:document-units="mm"
     inkscape:current-layer="layer1"
     showgrid="false"
     fit-margin-top="0"
     fit-margin-left="0"
     fit-margin-right="0"
     fit-margin-bottom="0"
     inkscape:window-width="1920"
     inkscape:window-height="995"
     inkscape:window-x="0"
     inkscape:window-y="48"
     inkscape:window-maximized="1" />
  <metadata
     id="metadata7489">
    <rdf:RDF>
      <cc:Work
         rdf:about="">
        <dc:format>image/svg+xml</dc:format>
        <dc:type
           rdf:resource="http://purl.org/dc/dcmitype/StillImage" />
        <dc:title></dc:title>
      </cc:Work>
    </rdf:RDF>
  </metadata>
  <g
     inkscape:label="Layer 1"
     inkscape:groupmode="layer"
     id="layer1"
     transform="translate(13.637381,-297.54272)">
    <path
       inkscape:connector-curvature="0"
       style="fill:#6d5f49;stroke:none;stroke-width:0.26458332"
       d="m 0.29293088,347.89028 q -1.77270798,-0.93927 -4.03489528,-1.40229 -1.0847917,-0.2249 -1.9711459,-0.635 -1.27,-0.59531 -2.143125,-1.57427 -0.3042708,-0.50271 -0.5027083,-1.07156 -0.5423958,-1.54782 -0.3307292,-3.4925 0.3042709,-2.6723 -0.1984375,-4.94771 -0.8995833,-2.03729 -2.7119787,-4.02167 -1.825625,-1.98437 -2.037292,-4.27302 0.211667,-2.26219 2.037292,-4.25979 1.8123954,-1.97115 2.7119787,-4.0349 0.5027084,-2.24896 0.1984375,-4.92125 -0.2910416,-2.68552 0.8334375,-4.56406 1.4816667,-1.6801 4.1142709,-2.2225 2.6458333,-0.52917 4.60375028,-1.70656 1.70656202,-1.50813 3.01625002,-3.84969 1.336145,-2.34156 3.399895,-3.22792 2.129896,-0.47625 4.5640631,0.635 2.460625,1.11125 4.788958,1.30969 2.354792,-0.18521 4.802188,-1.30969 2.434166,-1.11125 4.564062,-0.635 l 0.568854,0.27782 q 1.481667,0.83343 2.55323,2.50031 l 0.07937,0.14552 0.185208,0.30427 q 0.463026,0.82021 0.965734,1.53458 l -0.582083,-0.33073 q -0.926042,-0.8202 -1.74625,-1.89177 -1.865313,-0.21166 -3.942292,0.74084 -2.447396,1.12448 -4.802187,1.30968 -2.328334,-0.19843 -4.788959,-1.30968 -2.434166,-1.11125 -4.5640621,-0.635 -2.06375,0.88635 -3.399896,3.22791 -1.309687,2.34157 -3.01625,3.84969 -1.957917,1.1774 -4.60375,1.70656 -2.6326042,0.5424 -4.1142708,2.2225 -1.1244792,1.87855 -0.8334375,4.56407 0.3042708,2.67229 -0.1984375,4.92125 -0.8995834,2.06375 -2.7119792,4.03489 -1.8256249,1.99761 -2.0372919,4.25979 0.211667,2.28865 2.0372919,4.27302 1.8123958,1.98438 2.7119792,4.02167 0.5027083,2.27542 0.1984375,4.94771 -0.092604,0.80698 -0.039688,1.54781 2.4473963,0.5424 4.2994793,1.65365 1.12447998,0.97896 2.07697898,2.32833 M 32.995431,305.09393 q 1.785938,0.92604 4.034896,1.37583 l 0.171979,0.0397 q 0.96573,0.21166 1.772709,0.59531 1.27,0.59531 2.143125,1.5875 l 0.502708,1.05833 0.224896,0.7673 q 0.264583,1.24354 0.105833,2.73843 -0.304271,2.67229 0.224896,4.92125 0.873125,2.06375 2.69875,4.0349 l 0.806979,1.00541 q 1.058334,1.54782 1.217084,3.25438 -0.211667,2.27542 -2.024063,4.27302 -1.825625,1.98438 -2.69875,4.02167 -0.529167,2.27541 -0.224896,4.9477 0.291042,2.65907 -0.833437,4.56407 -1.468438,1.6801 -4.087813,2.20927 -2.632604,0.52917 -4.616979,1.71979 -1.706562,1.4949 -3.029479,3.82323 -1.322917,2.36802 -3.386667,3.25438 -2.129896,0.46302 -4.564062,-0.64823 -2.447396,-1.11125 -4.802188,-1.32292 -2.328333,0.21167 -4.788958,1.32292 -2.4341671,1.11125 -4.5640631,0.64823 l -0.555625,-0.26459 q -1.547812,-0.87312 -2.645833,-2.64583 l -0.198437,-0.34396 q -0.449792,-0.80698 -0.939271,-1.4949 l 0.568854,0.3175 q 0.939271,0.82021 1.759479,1.89178 1.852084,0.19843 3.929063,-0.75407 2.4606251,-1.11125 4.7889581,-1.32291 2.354792,0.21166 4.802188,1.32291 2.434166,1.11125 4.564062,0.64823 2.06375,-0.88635 3.386667,-3.25437 1.322916,-2.32834 3.029479,-3.82323 1.984375,-1.19063 4.616979,-1.71979 2.619375,-0.52917 4.087812,-2.20927 1.12448,-1.905 0.833438,-4.56407 -0.304271,-2.67229 0.224896,-4.94771 0.873125,-2.03729 2.69875,-4.02166 1.812396,-1.99761 2.024062,-4.27302 l -0.07937,-0.60854 q -0.383646,-1.91823 -1.944687,-3.65125 -1.825625,-1.97115 -2.69875,-4.0349 -0.529167,-2.24896 -0.224896,-4.92125 l 0.01323,-0.0926 0.03969,-1.46844 q -2.434175,-0.5424 -4.299488,-1.64042 -1.111249,-0.97896 -2.06375,-2.3151"
       id="path76" />
    <path
       inkscape:connector-curvature="0"
       style="fill:#5f4f38;stroke:none;stroke-width:0.26458332"
       d="m 32.995431,305.09393 q 0.9525,1.33614 2.06375,2.3151 1.865313,1.09802 4.29948,1.64042 l -0.03969,1.46844 -0.01323,0.0926 q -0.304271,2.67229 0.224896,4.92125 0.873125,2.06375 2.69875,4.03489 1.561041,1.73302 1.944687,3.65125 l 0.07937,0.60854 q -0.211666,2.27542 -2.024062,4.27302 -1.825625,1.98438 -2.69875,4.02167 -0.529167,2.27542 -0.224896,4.94771 0.291042,2.65906 -0.833438,4.56406 -1.468437,1.68011 -4.087812,2.20927 -2.632604,0.52917 -4.616979,1.71979 -1.706563,1.4949 -3.029479,3.82323 -1.322917,2.36802 -3.386667,3.25438 -2.129896,0.46302 -4.564063,-0.64823 -2.447395,-1.11125 -4.802187,-1.32292 -2.328333,0.21167 -4.7889581,1.32292 -2.07698,0.9525 -3.929063,0.75406 -0.8202,-1.07156 -1.759471,-1.89177 l -0.568854,-0.3175 q -0.9525,-1.34937 -2.07697902,-2.32833 l -0.568854,-0.3175 q -0.9525,-1.34937 -2.07697998,-2.32833 -1.852083,-1.11125 -4.2994788,-1.65365 -0.052917,-0.74083 0.039687,-1.54781 0.3042708,-2.67229 -0.1984375,-4.94771 -0.8995834,-2.03729 -2.7119792,-4.02167 -1.8256244,-1.98437 -2.0372914,-4.27302 0.211667,-2.26218 2.0372914,-4.25979 1.8123958,-1.97114 2.7119792,-4.03489 0.5027083,-2.24896 0.1984375,-4.92125 -0.2910417,-2.68552 0.8334375,-4.56407 1.4816666,-1.6801 4.1142708,-2.2225 2.645833,-0.52916 4.60375,-1.70656 1.706562,-1.50812 3.01625,-3.84969 1.336146,-2.34156 3.399896,-3.22791 2.1298966,-0.47625 4.5640626,0.635 2.460624,1.11125 4.788959,1.30968 2.354791,-0.1852 4.802187,-1.30968 2.076979,-0.9525 3.942291,-0.74084 0.820209,1.07157 1.74625,1.89177 l 0.582084,0.33073 q 0.9525,1.33615 2.063749,2.31511 l 0.582083,0.33073 m -25.8233326,8.36083 q -1.177396,0.71438 -2.764896,1.01865 -1.574271,0.33073 -2.473854,1.33614 -0.661458,1.13771 -0.489479,2.73844 0.185208,1.60073 -0.119063,2.9501 -0.54239502,1.24355 -1.62718702,2.42094 -1.09802098,1.20386 -1.21708298,2.55323 0.119062,1.37583 1.21708298,2.56646 1.084792,1.19062 1.62718702,2.42094 0.304271,1.3626 0.119063,2.96333 -0.07938,0.7276 0.01323,1.3626 0.119063,0.75407 0.47625,1.37584 0.806979,0.91281 2.169583,1.27 l 0.304271,0.0662 q 1.018646,0.19843 1.878542,0.58208 l 0.886354,0.44979 q 0.767292,0.67469 1.402292,1.62719 l 0.357187,0.56885 0.05292,0.0926 q 0.806979,1.41552 2.0372916,1.94469 l 0.198437,0.0397 q 1.190625,0.18521 2.54,-0.42333 1.481667,-0.66146 2.870729,-0.78052 1.42875,0.11906 2.883959,0.78052 1.468438,0.66146 2.738437,0.38364 1.243543,-0.52916 2.037293,-1.94468 0.793749,-1.38907 1.812396,-2.28865 1.190625,-0.7276 2.764894,-1.03188 1.574271,-0.3175 2.473855,-1.33614 0.674688,-1.13771 0.489479,-2.73844 -0.171979,-1.60073 0.132291,-2.96333 0.529167,-1.23031 1.613959,-2.42094 1.098021,-1.19062 1.217083,-2.56646 -0.0926,-1.00541 -0.714374,-1.93146 l -0.502713,-0.62177 -0.595312,-0.70114 q -0.648229,-0.84667 -1.018646,-1.7198 -0.30427,-1.34937 -0.132291,-2.9501 0.07937,-0.7276 0,-1.34938 -0.119063,-0.76729 -0.489479,-1.38906 -0.80698,-0.89958 -2.156355,-1.25677 l -0.3175,-0.0794 q -1.005416,-0.19843 -1.852083,-0.55562 -0.489479,-0.21167 -0.912812,-0.46302 -0.767292,-0.68792 -1.389063,-1.64042 l -0.343958,-0.54239 -0.07937,-0.13229 -0.396876,-0.62177 q -0.70115,-0.91282 -1.640422,-1.30969 l -0.185208,-0.0397 q -1.190625,-0.18521 -2.553229,0.42333 -1.455209,0.66146 -2.883959,0.78052 -1.389062,-0.11906 -2.870729,-0.78052 -1.455208,-0.66146 -2.738437,-0.38365 -1.2303126,0.52917 -2.0372916,1.93146 -0.79375,1.38907 -1.799167,2.30188 l -0.01323,0.0132"
       id="path78" />
  </g>
</svg>
