<?xml version="1.0" encoding="UTF-8" standalone="no"?>
<!-- Created with Inkscape (http://www.inkscape.org/) -->

<svg
   xmlns:dc="http://purl.org/dc/elements/1.1/"
   xmlns:cc="http://creativecommons.org/ns#"
   xmlns:rdf="http://www.w3.org/1999/02/22-rdf-syntax-ns#"
   xmlns:svg="http://www.w3.org/2000/svg"
   xmlns="http://www.w3.org/2000/svg"
   xmlns:sodipodi="http://sodipodi.sourceforge.net/DTD/sodipodi-0.dtd"
   xmlns:inkscape="http://www.inkscape.org/namespaces/inkscape"
   width="59.650249mm"
   height="59.74279mm"
   viewBox="0 0 59.650249 59.74279"
   version="1.1"
   id="svg12821"
   inkscape:version="0.92.5 (2060ec1f9f, 2020-04-08)"
   sodipodi:docname="stripes_1.svg">
  <defs
     id="defs12815" />
  <sodipodi:namedview
     id="base"
     pagecolor="#ffffff"
     bordercolor="#666666"
     borderopacity="1.0"
     inkscape:pageopacity="0.0"
     inkscape:pageshadow="2"
     inkscape:zoom="0.35"
     inkscape:cx="437.01054"
     inkscape:cy="661.47094"
     inkscape:document-units="mm"
     inkscape:current-layer="layer1"
     showgrid="false"
     fit-margin-top="0"
     fit-margin-left="0"
     fit-margin-right="0"
     fit-margin-bottom="0"
     inkscape:window-width="1920"
     inkscape:window-height="995"
     inkscape:window-x="0"
     inkscape:window-y="48"
     inkscape:window-maximized="1" />
  <metadata
     id="metadata12818">
    <rdf:RDF>
      <cc:Work
         rdf:about="">
        <dc:format>image/svg+xml</dc:format>
        <dc:type
           rdf:resource="http://purl.org/dc/dcmitype/StillImage" />
        <dc:title></dc:title>
      </cc:Work>
    </rdf:RDF>
  </metadata>
  <g
     inkscape:label="Layer 1"
     inkscape:groupmode="layer"
     id="layer1"
     transform="translate(159.84892,-264.10473)">
    <path
       inkscape:connector-curvature="0"
       style="fill:#000000;fill-opacity:0.10196078;stroke:none;stroke-width:0.26458332"
       d="m -152.26865,274.01338 0.75406,-0.1323 q 5.25198,-1.12448 10.21292,-3.175 3.55864,-1.49489 6.8527,-3.41312 1.41553,-0.83344 2.84428,-1.62719 1.41552,-0.79375 2.8575,-1.56104 4.10104,0.14552 7.8052,1.29646 l -0.74083,0.29104 q -3.46604,1.50812 -6.70719,3.43958 l -3.21468,1.85209 q -1.66688,0.92604 -3.37344,1.79916 -8.99584,4.56407 -18.94417,6.01927 l -2.07698,0.23813 q 1.56104,-2.64583 3.73063,-5.02708 m 42.16135,-2.34157 v 0.0132 l 0.75406,0.70115 q -6.31031,1.41552 -12.32958,3.88937 -3.01625,1.30969 -5.86052,2.95011 l -1.66688,-0.17198 -0.0926,-0.0132 -0.7276,-0.0132 q -6.19125,0 -10.55687,4.39208 -1.5875,1.57427 -2.60615,3.3999 -5.21229,1.75948 -10.72885,2.56645 -2.96334,0.29105 -5.78115,0.78053 0.27781,-2.42094 0.92604,-4.68313 l 0.58208,-0.0794 6.68073,-0.93927 q 5.25198,-1.12448 10.21292,-3.175 3.55865,-1.4949 6.85271,-3.41313 1.41552,-0.83343 2.84427,-1.62718 1.905,-1.07156 3.83646,-2.09021 6.70719,-3.45281 13.94354,-5.38427 1.82562,1.20385 3.51896,2.71198 l 0.19844,0.18521 m 7.83166,26.60385 1.91823,-0.43656 q -0.29104,2.47385 -0.96573,4.78896 l -2.79135,0.51593 q -9.06198,1.38907 -17.56834,4.88157 -3.46604,1.50812 -6.70718,3.43958 l -3.21469,1.85209 q -1.66688,0.92604 -3.37344,1.79917 -5.29167,2.68552 -10.90084,4.29948 -2.0902,-1.33615 -4.00843,-3.06917 l -0.0397,-0.0397 -0.0265,-0.0265 h -0.0132 l -0.35719,-0.33073 q 4.63021,-1.09802 9.0223,-2.91041 3.55864,-1.4949 6.8527,-3.41313 0.82021,-0.48948 1.65365,-0.9525 l 2.7649,0.23813 q 6.19125,0 10.5701,-4.36563 1.42875,-1.44198 2.40771,-3.06916 3.91583,-1.25678 7.99042,-2.05053 l 6.78656,-1.15093 m 0,-10.58334 1.46844,-0.33073 q 0.46302,2.15636 0.60854,4.445 l -3.91584,0.75407 q -5.60916,0.85989 -11.00666,2.52677 l 0.0265,-1.11125 q -0.0132,-1.86531 -0.41011,-3.55865 3.175,-0.93927 6.44261,-1.57427 l 6.78656,-1.15094 m -2.68552,-10.10708 q 1.33614,1.98438 2.3151,4.14073 l -1.46844,0.25135 q -6.99823,1.07157 -13.66573,3.3999 l -0.21166,-0.27781 -0.0132,-0.0265 -0.2249,-0.29104 -1.21708,-1.34938 -0.0132,-0.0132 -1.41552,-1.28323 -0.26459,-0.19844 -0.15875,-0.11906 q 5.92667,-2.32833 12.23698,-3.55864 l 4.10104,-0.67469 m -40.005,15.66333 -0.0132,0.72761 0.0132,0.74083 0.0132,0.0794 q 0.0794,1.57427 0.4498,3.02948 -4.60375,1.44198 -9.41917,2.14312 l -5.30489,0.70116 q -0.47625,-2.15636 -0.62178,-4.43177 l 1.65365,-0.25136 6.68073,-0.93927 q 3.33375,-0.71437 6.54844,-1.79917 m 4.39208,11.31094 1.34938,1.21708 0.29104,0.2249 0.0265,0.0132 0.30427,0.2249 q -7.35542,3.14854 -15.31938,4.3127 l -0.99219,0.10584 q -1.38906,-2.01084 -2.38125,-4.18042 l 5.78115,-0.84667 q 4.81542,-1.03187 9.39271,-2.83104 l 0.0529,0.0661 0.19843,0.26459 q 0.56886,0.70114 1.28323,1.41552 l 0.0132,0.0132 m 9.07521,19.28812 q -3.94229,-0.17198 -7.48771,-1.24354 2.32834,-1.11125 4.53761,-2.39448 1.41552,-0.83344 2.84427,-1.62719 1.905,-1.07156 3.83646,-2.09021 8.89,-4.57729 18.70604,-6.48229 l 4.86833,-0.80698 q -1.6801,2.77813 -4.03489,5.27844 -6.8924,1.42875 -13.45407,4.1275 -3.46604,1.50813 -6.70718,3.43958 -1.53459,0.92605 -3.10886,1.79917"
       id="path86" />
  </g>
</svg>
