<?xml version="1.0" encoding="UTF-8" standalone="no"?>
<!-- Created with Inkscape (http://www.inkscape.org/) -->

<svg
   xmlns:dc="http://purl.org/dc/elements/1.1/"
   xmlns:cc="http://creativecommons.org/ns#"
   xmlns:rdf="http://www.w3.org/1999/02/22-rdf-syntax-ns#"
   xmlns:svg="http://www.w3.org/2000/svg"
   xmlns="http://www.w3.org/2000/svg"
   xmlns:sodipodi="http://sodipodi.sourceforge.net/DTD/sodipodi-0.dtd"
   xmlns:inkscape="http://www.inkscape.org/namespaces/inkscape"
   width="59.650314mm"
   height="59.742802mm"
   viewBox="0 0 59.650314 59.742802"
   version="1.1"
   id="svg12236"
   inkscape:version="0.92.5 (2060ec1f9f, 2020-04-08)"
   sodipodi:docname="stripes_0.svg">
  <defs
     id="defs12230" />
  <sodipodi:namedview
     id="base"
     pagecolor="#ffffff"
     bordercolor="#666666"
     borderopacity="1.0"
     inkscape:pageopacity="0.0"
     inkscape:pageshadow="2"
     inkscape:zoom="0.35"
     inkscape:cx="-148.70357"
     inkscape:cy="758.61383"
     inkscape:document-units="mm"
     inkscape:current-layer="layer1"
     showgrid="false"
     fit-margin-top="0"
     fit-margin-left="0"
     fit-margin-right="0"
     fit-margin-bottom="0"
     inkscape:window-width="1920"
     inkscape:window-height="995"
     inkscape:window-x="0"
     inkscape:window-y="48"
     inkscape:window-maximized="1" />
  <metadata
     id="metadata12233">
    <rdf:RDF>
      <cc:Work
         rdf:about="">
        <dc:format>image/svg+xml</dc:format>
        <dc:type
           rdf:resource="http://purl.org/dc/dcmitype/StillImage" />
        <dc:title></dc:title>
      </cc:Work>
    </rdf:RDF>
  </metadata>
  <g
     inkscape:label="Layer 1"
     inkscape:groupmode="layer"
     id="layer1"
     transform="translate(4.8787279,-289.80711)">
    <path
       inkscape:connector-curvature="0"
       style="fill:#ffffff;fill-opacity:0.2;stroke:none;stroke-width:0.26458332"
       d="m 34.028251,291.10357 -0.740833,0.29104 q -3.466042,1.50813 -6.707188,3.43959 l -3.214687,1.85208 q -1.666875,0.92604 -3.373438,1.79917 -8.995833,4.56406 -18.9441662,6.01927 l -2.0769792,0.23812 q 1.56104167,-2.64583 3.730625,-5.02708 l 0.7540625,-0.13229 q 5.251979,-1.12448 10.2129169,-3.175 3.558645,-1.4949 6.852708,-3.41313 1.415521,-0.83343 2.844271,-1.62718 1.415521,-0.79375 2.8575,-1.56105 4.101041,0.14553 7.805208,1.29646 m 10.834688,6.27063 v 0.0132 l 0.754062,0.70114 q -6.310312,1.41552 -12.329583,3.88938 -3.01625,1.30969 -5.860521,2.9501 l -1.666875,-0.17198 -0.0926,-0.0132 -0.727604,-0.0132 q -6.19125,0 -10.556875,4.39209 -1.5875,1.57427 -2.606146,3.39989 -5.2122919,1.75948 -10.7288542,2.56646 -2.9633334,0.29104 -5.7811459,0.78052 0.2778125,-2.42094 0.9260417,-4.68312 l 0.5820833,-0.0794 q 3.38666667,-0.35719 6.6807292,-0.93928 5.251979,-1.12447 10.2129169,-3.175 3.558645,-1.49489 6.852708,-3.41312 1.415521,-0.83344 2.844271,-1.62719 1.905,-1.07156 3.836458,-2.09021 6.707188,-3.45281 13.943542,-5.38427 1.825625,1.20386 3.518958,2.71198 l 0.198438,0.18521 m -34.858855,21.57677 -0.01323,0.72761 0.01323,0.74083 0.01323,0.0794 q 0.07938,1.57427 0.449791,3.02948 -4.6037499,1.44198 -9.4191662,2.14312 -2.7119832,0.2646 -5.3048999,0.70116 -0.47625,-2.15635 -0.6217708,-4.43177 l 1.6536458,-0.25135 q 3.38666667,-0.35719 6.6807292,-0.93927 3.33375,-0.71438 6.5484369,-1.79917 m -12.3295827,13.22917 5.7811458,-0.84667 q 4.815417,-1.03188 9.3927079,-2.83104 l 0.05292,0.0661 0.198437,0.26458 q 0.568855,0.70115 1.28323,1.41552 l 0.01323,0.0132 1.349375,1.21708 0.291041,0.2249 0.02646,0.0132 0.304271,0.2249 q -7.3554169,3.14854 -15.3193752,4.3127 l -0.99218753,0.10584 q -1.38906247,-2.01084 -2.38124997,-4.18042 m 7.3421875,9.80281 h -0.013234 l -0.3571875,-0.33073 q 4.630208,-1.09802 9.0222917,-2.91042 3.558645,-1.49489 6.852708,-3.41312 0.820208,-0.48948 1.653646,-0.9525 l 2.764896,0.23812 q 6.19125,0 10.570104,-4.36562 1.42875,-1.44198 2.407708,-3.06917 3.915833,-1.25677 7.990417,-2.05052 l 6.786562,-1.15094 1.918229,-0.43656 q -0.291041,2.47385 -0.965729,4.78896 l -2.791354,0.51594 q -9.061979,1.38906 -17.568333,4.88156 -3.466042,1.50812 -6.707188,3.43958 l -3.214687,1.85208 q -1.666875,0.92605 -3.373438,1.79917 -5.291666,2.68552 -10.9008327,4.29948 -2.090208,-1.33615 -4.0084375,-3.06917 l -0.039687,-0.0397 -0.026458,-0.0265 m 18.3488542,2.30188 q 1.905,-1.07156 3.836458,-2.09021 8.89,-4.57729 18.706042,-6.48229 l 4.868333,-0.80698 q -1.680104,2.77812 -4.034896,5.27844 -6.892396,1.42875 -13.454062,4.1275 -3.466042,1.50812 -6.707188,3.43958 -1.534583,0.92604 -3.108854,1.79917 -3.942292,-0.17198 -7.487708,-1.24354 2.328333,-1.11125 4.537604,-2.39448 1.415521,-0.83344 2.844271,-1.62719 m 29.329062,-30.89011 1.468438,-0.33072 q 0.463021,2.15635 0.608541,4.445 l -3.915833,0.75406 q -5.609167,0.85989 -11.006667,2.52677 l 0.02646,-1.11125 q -0.01323,-1.86531 -0.410104,-3.55865 3.175,-0.93927 6.442604,-1.57427 l 6.786562,-1.15094 m -1.838854,-5.715 q -6.998231,1.07157 -13.665731,3.3999 l -0.211667,-0.27781 -0.01323,-0.0265 -0.224896,-0.29104 -1.217083,-1.34937 -0.01323,-0.0132 -1.415521,-1.28323 -0.264583,-0.19844 -0.15875,-0.11906 q 5.926666,-2.32834 12.236979,-3.55865 l 4.101041,-0.67469 q 1.336146,1.98438 2.315105,4.14073 l -1.468438,0.25136"
       id="path84" />
  </g>
</svg>
