<?xml version="1.0" encoding="UTF-8" standalone="no"?>
<!-- Created with Inkscape (http://www.inkscape.org/) -->

<svg
   xmlns:dc="http://purl.org/dc/elements/1.1/"
   xmlns:cc="http://creativecommons.org/ns#"
   xmlns:rdf="http://www.w3.org/1999/02/22-rdf-syntax-ns#"
   xmlns:svg="http://www.w3.org/2000/svg"
   xmlns="http://www.w3.org/2000/svg"
   xmlns:sodipodi="http://sodipodi.sourceforge.net/DTD/sodipodi-0.dtd"
   xmlns:inkscape="http://www.inkscape.org/namespaces/inkscape"
   width="51.355087mm"
   height="55.535702mm"
   viewBox="0 0 51.355087 55.535702"
   version="1.1"
   id="svg10459"
   inkscape:version="0.92.5 (2060ec1f9f, 2020-04-08)"
   sodipodi:docname="toppings_3.svg">
  <defs
     id="defs10453" />
  <sodipodi:namedview
     id="base"
     pagecolor="#ffffff"
     bordercolor="#666666"
     borderopacity="1.0"
     inkscape:pageopacity="0.0"
     inkscape:pageshadow="2"
     inkscape:zoom="0.35"
     inkscape:cx="-1127.2366"
     inkscape:cy="1050.6629"
     inkscape:document-units="mm"
     inkscape:current-layer="layer1"
     showgrid="false"
     fit-margin-top="0"
     fit-margin-left="0"
     fit-margin-right="0"
     fit-margin-bottom="0"
     inkscape:window-width="1920"
     inkscape:window-height="995"
     inkscape:window-x="0"
     inkscape:window-y="48"
     inkscape:window-maximized="1" />
  <metadata
     id="metadata10456">
    <rdf:RDF>
      <cc:Work
         rdf:about="">
        <dc:format>image/svg+xml</dc:format>
        <dc:type
           rdf:resource="http://purl.org/dc/dcmitype/StillImage" />
        <dc:title></dc:title>
      </cc:Work>
    </rdf:RDF>
  </metadata>
  <g
     inkscape:label="Layer 1"
     inkscape:groupmode="layer"
     id="layer1"
     transform="translate(-254.0248,-371.28552)">
    <path
       inkscape:connector-curvature="0"
       style="fill:#f3e5d4;stroke:none;stroke-width:0.26458332"
       d="m 290.95947,421.58375 q -0.0794,0.35718 -0.41011,0.55562 l -2.79135,1.60073 q -0.3175,0.18521 -0.67469,0.0926 -0.37041,-0.10583 -0.55562,-0.39688 -0.18521,-0.33073 -0.0661,-0.71437 0.0794,-0.35719 0.39687,-0.55563 l 2.77813,-1.60073 q 0.34396,-0.19843 0.68791,-0.11906 0.38365,0.11906 0.56886,0.44979 0.17198,0.30427 0.0661,0.68792 m -11.33739,-5.72822 q 0.25136,-0.25136 0.635,-0.25136 0.38365,-0.0132 0.64823,0.26459 l 2.27542,2.27541 q 0.26458,0.26459 0.25135,0.62177 0.0132,0.38365 -0.23812,0.64823 -0.26459,0.26459 -0.66146,0.25136 -0.37042,0.0132 -0.64823,-0.25136 l -2.26219,-2.27541 q -0.27781,-0.27782 -0.27781,-0.635 0.0132,-0.38365 0.27781,-0.64823 m 17.91229,-1.56105 q 0.34396,0.21167 0.43657,0.5424 0.10583,0.38365 -0.0926,0.71438 -0.14552,0.23812 -0.41011,0.35718 l -0.15875,0.0529 q -0.34396,0.10584 -0.67468,-0.0794 l -2.79136,-1.62718 q -0.3175,-0.18521 -0.4101,-0.52917 -0.0926,-0.37042 0.0661,-0.67469 0.18521,-0.33073 0.58208,-0.42333 l 0.64823,0.0529 0.0265,0.0132 2.77813,1.60073 m 5.78114,-8.10948 q 0.35719,0.19844 0.44979,0.58208 0.0529,0.26459 -0.0397,0.5424 l -0.0794,0.14552 q -0.17198,0.3175 -0.52916,0.4101 l -3.12209,0.83344 q -0.35718,0.0926 -0.66145,-0.0926 -0.33073,-0.19844 -0.43657,-0.51594 -0.10583,-0.37041 0.10584,-0.71437 0.17198,-0.30427 0.5027,-0.42334 h 0.0265 l 3.09563,-0.84666 q 0.39687,-0.0794 0.68792,0.0794 m -2.88397,-10.63625 q 0.35719,0 0.635,0.27781 0.27781,0.25135 0.26459,0.635 v 3.21469 q 0,0.37041 -0.25136,0.635 -0.27781,0.26458 -0.635,0.27781 -0.37042,0 -0.64823,-0.29104 -0.26458,-0.25136 -0.27781,-0.635 v -3.20146 q 0,-0.39688 0.25135,-0.64823 0.29105,-0.26458 0.66146,-0.26458 m -25.33385,30.58583 q -0.10583,-0.35719 0.0794,-0.68792 l 1.61396,-2.77812 q 0.18521,-0.33073 0.54239,-0.42334 0.37042,-0.0926 0.68792,0.0926 0.3175,0.18521 0.4101,0.55563 0.10584,0.35719 -0.0794,0.68792 l -1.61395,2.77812 q -0.18521,0.33073 -0.5424,0.42333 -0.37042,0.10584 -0.68792,-0.0794 -0.3175,-0.1852 -0.4101,-0.56885 m -3.63802,-5.06677 -0.0794,0.14552 q -0.17198,0.3175 -0.52917,0.4101 l -3.12208,0.83344 q -0.35719,0.0926 -0.66146,-0.0926 -0.33073,-0.19844 -0.43656,-0.51594 -0.10584,-0.37041 0.10583,-0.71437 0.17198,-0.30427 0.50271,-0.42333 h 0.0265 l 3.09562,-0.84667 q 0.39688,-0.0794 0.68792,0.0794 0.35719,0.19844 0.44979,0.58208 0.0529,0.26459 -0.0397,0.5424 m -6.1251,-9.57792 q 0.25135,-0.25135 0.635,-0.25135 0.38365,-0.0132 0.64823,0.26458 l 2.27542,2.27542 q 0.26458,0.26458 0.25135,0.62177 0.0132,0.38364 -0.23813,0.64823 -0.26458,0.26458 -0.66145,0.25135 -0.37042,0.0132 -0.64823,-0.25135 l -2.26219,-2.27542 q -0.27781,-0.27781 -0.27781,-0.635 0.0132,-0.38365 0.27781,-0.64823 m -6.19125,-1.52135 q 0.35719,0 0.635,0.27781 0.27781,0.25135 0.26458,0.635 v 3.21469 q 0,0.37041 -0.25135,0.635 -0.27781,0.26458 -0.635,0.27781 -0.37042,0 -0.64823,-0.29104 -0.26458,-0.25136 -0.27781,-0.635 v -3.20146 q 0,-0.39688 0.25135,-0.64823 0.29104,-0.26458 0.66146,-0.26458 m 5.27844,-4.53761 q 0.34396,0.21167 0.43656,0.5424 0.10583,0.38364 -0.0926,0.71437 -0.14552,0.23813 -0.4101,0.35719 l -0.15875,0.0529 q -0.34398,0.10582 -0.67471,-0.0794 l -2.79136,-1.62718 q -0.3175,-0.18521 -0.4101,-0.52917 -0.0926,-0.37042 0.0661,-0.67469 0.1852,-0.33073 0.58208,-0.42333 l 0.64823,0.0529 0.0265,0.0132 2.77812,1.60073 m -7.02469,-2.77813 q 0.10584,0.35719 -0.0794,0.68791 l -1.61396,2.77813 q -0.18521,0.33073 -0.54239,0.42333 -0.37042,0.10584 -0.68792,-0.0794 -0.3175,-0.18521 -0.41011,-0.56886 -0.10583,-0.35718 0.0794,-0.68791 l 1.61396,-2.77813 q 0.18521,-0.33073 0.54239,-0.42333 0.37042,-0.0926 0.68792,0.0926 0.3175,0.18521 0.4101,0.55562 m 4.47146,-6.64103 q 0.0132,0.38364 -0.23812,0.64823 -0.26459,0.26458 -0.66146,0.25135 -0.37042,0.0132 -0.64823,-0.25135 l -2.26219,-2.27542 q -0.27781,-0.27781 -0.27781,-0.635 0.0132,-0.38365 0.27781,-0.64823 0.25136,-0.25135 0.635,-0.25135 0.38365,-0.0132 0.64823,0.26458 l 2.27542,2.27542 q 0.26458,0.26458 0.25135,0.62177 m 8.63865,-15.20032 2.77812,1.60073 q 0.34396,0.21167 0.43657,0.5424 0.10583,0.38365 -0.0926,0.71437 l -0.41011,0.35719 -0.15875,0.0529 q -0.34396,0.10584 -0.67468,-0.0794 l -2.79136,-1.62719 q -0.3175,-0.1852 -0.4101,-0.52916 -0.0926,-0.37042 0.0661,-0.67469 0.18521,-0.33073 0.58208,-0.42333 l 0.64823,0.0529 0.0265,0.0132 m -13.28209,6.45583 q 0.0794,-0.35719 0.39687,-0.55563 l 2.77813,-1.60073 q 0.34395,-0.19843 0.68791,-0.11906 0.38365,0.11906 0.56886,0.44979 0.17198,0.30427 0.0661,0.68792 -0.0794,0.35719 -0.4101,0.55562 l -2.79136,1.60073 q -0.3175,0.18521 -0.67468,0.0926 -0.37042,-0.10583 -0.55563,-0.39687 -0.18521,-0.33073 -0.0661,-0.71437 m 5.5827,-5.01386 q -0.3175,-0.1852 -0.4101,-0.56885 -0.10583,-0.35719 0.0794,-0.68792 l 1.61396,-2.77812 q 0.18521,-0.33073 0.5424,-0.42334 0.37042,-0.0926 0.68792,0.0926 0.3175,0.18521 0.4101,0.55562 0.10583,0.35719 -0.0794,0.68792 l -1.61396,2.77813 q -0.18521,0.33072 -0.5424,0.42333 -0.37042,0.10583 -0.68792,-0.0794 m 38.48365,6.20448 q 0.0132,-0.38364 0.27781,-0.64823 0.25135,-0.25135 0.635,-0.25135 0.38365,-0.0132 0.64823,0.26458 l 2.27542,2.27542 q 0.26458,0.26458 0.25135,0.62177 0.0132,0.38365 -0.23812,0.64823 -0.26459,0.26458 -0.66146,0.25135 -0.37042,0.0132 -0.64823,-0.25135 l -2.26219,-2.27542 q -0.27781,-0.27781 -0.27781,-0.635 m -10.72886,-8.77093 q 0.34396,-0.19844 0.68792,-0.11907 0.38365,0.11907 0.56885,0.44979 0.17198,0.30428 0.0661,0.68792 -0.0794,0.35719 -0.4101,0.55563 l -2.79135,1.60073 q -0.3175,0.1852 -0.67469,0.0926 -0.37042,-0.10584 -0.55563,-0.39688 -0.1852,-0.33073 -0.0661,-0.71437 0.0794,-0.35719 0.39688,-0.55563 l 2.77812,-1.60073 m 5.80761,1.44198 q 0.18521,-0.33073 0.54239,-0.42333 0.37042,-0.0926 0.68792,0.0926 0.3175,0.18521 0.4101,0.55563 0.10584,0.35718 -0.0794,0.68791 l -1.61395,2.77813 q -0.18521,0.33073 -0.5424,0.42333 -0.37042,0.10584 -0.68792,-0.0794 -0.3175,-0.18521 -0.4101,-0.56885 -0.10583,-0.35719 0.0794,-0.68792 l 1.61396,-2.77812 m -19.61885,-7.14375 q 0.35718,0 0.635,0.27781 0.27781,0.25135 0.26458,0.635 v 3.21469 q 0,0.37041 -0.25136,0.635 -0.27781,0.26458 -0.635,0.27781 -0.37041,0 -0.64822,-0.29104 -0.26459,-0.25136 -0.27782,-0.635 v -3.20146 q 0,-0.39688 0.25136,-0.64823 0.29104,-0.26459 0.66146,-0.26459 m 11.72104,-0.15875 q 0.26458,0.26459 0.25135,0.62178 0.0132,0.38364 -0.23813,0.64822 -0.26458,0.26459 -0.66145,0.25136 -0.37042,0.0132 -0.64823,-0.25136 l -2.26219,-2.27541 q -0.27781,-0.27781 -0.27781,-0.635 0.0132,-0.38365 0.27781,-0.64823 0.25135,-0.25136 0.635,-0.25136 0.38365,-0.0132 0.64823,0.26459 l 2.27542,2.27541"
       id="path48" />
  </g>
</svg>
