<?xml version="1.0" encoding="UTF-8" standalone="no"?>
<!-- Created with Inkscape (http://www.inkscape.org/) -->

<svg
   xmlns:dc="http://purl.org/dc/elements/1.1/"
   xmlns:cc="http://creativecommons.org/ns#"
   xmlns:rdf="http://www.w3.org/1999/02/22-rdf-syntax-ns#"
   xmlns:svg="http://www.w3.org/2000/svg"
   xmlns="http://www.w3.org/2000/svg"
   xmlns:sodipodi="http://sodipodi.sourceforge.net/DTD/sodipodi-0.dtd"
   xmlns:inkscape="http://www.inkscape.org/namespaces/inkscape"
   width="51.355087mm"
   height="55.535389mm"
   viewBox="0 0 51.355087 55.535389"
   version="1.1"
   id="svg2137"
   inkscape:version="0.92.5 (2060ec1f9f, 2020-04-08)"
   sodipodi:docname="toppings_2.svg">
  <defs
     id="defs2131" />
  <sodipodi:namedview
     id="base"
     pagecolor="#ffffff"
     bordercolor="#666666"
     borderopacity="1.0"
     inkscape:pageopacity="0.0"
     inkscape:pageshadow="2"
     inkscape:zoom="0.35"
     inkscape:cx="-470.09386"
     inkscape:cy="104.94859"
     inkscape:document-units="mm"
     inkscape:current-layer="layer1"
     showgrid="false"
     fit-margin-top="0"
     fit-margin-left="0"
     fit-margin-right="0"
     fit-margin-bottom="0"
     inkscape:window-width="1920"
     inkscape:window-height="995"
     inkscape:window-x="0"
     inkscape:window-y="48"
     inkscape:window-maximized="1" />
  <metadata
     id="metadata2134">
    <rdf:RDF>
      <cc:Work
         rdf:about="">
        <dc:format>image/svg+xml</dc:format>
        <dc:type
           rdf:resource="http://purl.org/dc/dcmitype/StillImage" />
        <dc:title></dc:title>
      </cc:Work>
    </rdf:RDF>
  </metadata>
  <g
     inkscape:label="Layer 1"
     inkscape:groupmode="layer"
     id="layer1"
     transform="translate(-80.155787,-121.06559)">
    <path
       d="m 101.96949,127.87924 v -3.20146 q 0,-0.39688 0.25135,-0.64823 0.29104,-0.26458 0.66146,-0.26458 0.35719,0 0.635,0.27781 0.27781,0.25135 0.26458,0.635 v 3.21469 q 0,0.37041 -0.25135,0.635 -0.27782,0.26458 -0.635,0.27781 -0.37042,0 -0.64823,-0.29104 -0.26459,-0.25136 -0.27781,-0.635 m -15.438442,7.01146 q 0.343958,-0.19844 0.687917,-0.11907 0.383645,0.11907 0.568854,0.4498 0.171979,0.30427 0.06615,0.68791 -0.07937,0.35719 -0.410105,0.55563 l -2.791354,1.60073 q -0.3175,0.1852 -0.674687,0.0926 -0.370417,-0.10583 -0.555625,-0.39687 -0.185209,-0.33073 -0.06615,-0.71438 0.07937,-0.35719 0.396875,-0.55562 l 2.778125,-1.60073 m 31.419272,-5.09323 q 0.17198,0.30427 0.0661,0.68791 -0.0794,0.35719 -0.41011,0.55563 l -2.79135,1.60073 q -0.3175,0.18521 -0.67469,0.0926 -0.37041,-0.10584 -0.55562,-0.39688 -0.18521,-0.33073 -0.0661,-0.71437 0.0794,-0.35719 0.39687,-0.55563 l 2.77813,-1.60073 q 0.34396,-0.19843 0.68791,-0.11906 0.38365,0.11906 0.56886,0.44979 m 7.69937,16.44386 q 0,-0.39687 0.25136,-0.64823 0.29104,-0.26458 0.66146,-0.26458 0.35718,0 0.635,0.27781 0.27781,0.25136 0.26458,0.635 v 3.21469 q 0,0.37041 -0.25136,0.635 -0.27781,0.26458 -0.635,0.27781 -0.37041,0 -0.64822,-0.29104 -0.26459,-0.25136 -0.27782,-0.635 v -3.20146 m -12.99104,26.97427 q -0.18521,-0.33073 -0.0661,-0.71437 0.0794,-0.35719 0.39688,-0.55563 l 2.77812,-1.60073 q 0.34396,-0.19844 0.68792,-0.11906 0.38364,0.11906 0.56885,0.44979 0.17198,0.30427 0.0661,0.68792 -0.0794,0.35719 -0.4101,0.55562 l -2.79136,1.60073 q -0.3175,0.18521 -0.67468,0.0926 -0.37042,-0.10583 -0.55563,-0.39687 M 85.274277,159.7483 q 0.357188,0 0.635,0.27781 0.277813,0.25136 0.264583,0.635 v 3.21469 q 0,0.37042 -0.251354,0.635 -0.277812,0.26458 -0.635,0.27781 -0.370416,0 -0.648229,-0.29104 -0.264583,-0.25135 -0.277812,-0.635 v -3.20146 q 0,-0.39687 0.251354,-0.64823 0.291041,-0.26458 0.661458,-0.26458"
       id="path42"
       inkscape:connector-curvature="0"
       style="fill:#a879e0;stroke:none;stroke-width:0.26458332" />
    <path
       d="m 91.452298,127.66757 q 0.3175,0.18521 0.410104,0.55563 0.105833,0.35718 -0.07937,0.68791 l -1.613963,2.77813 q -0.185209,0.33073 -0.542396,0.42333 -0.370417,0.10583 -0.687917,-0.0794 -0.3175,-0.18521 -0.410104,-0.56886 -0.105833,-0.35719 0.07938,-0.68792 l 1.613958,-2.77812 q 0.185209,-0.33073 0.542396,-0.42333 0.370417,-0.0926 0.687917,0.0926 m 19.592397,-6.35 q 0.25136,-0.25135 0.635,-0.25135 0.38365,-0.0132 0.64823,0.26458 l 2.27542,2.27542 q 0.26458,0.26458 0.25135,0.62177 0.0132,0.38364 -0.23812,0.64823 -0.26459,0.26458 -0.66146,0.25135 -0.37042,0.0132 -0.64823,-0.25135 l -2.26219,-2.27542 q -0.27781,-0.27781 -0.27781,-0.635 0.0132,-0.38365 0.27781,-0.64823 m -26.85521,21.56354 q 0.251355,-0.25135 0.635,-0.25135 0.383646,-0.0132 0.64823,0.26458 l 2.275416,2.27542 q 0.264584,0.26458 0.251354,0.62177 0.01323,0.38365 -0.238125,0.64823 -0.264583,0.26458 -0.661458,0.25135 -0.370417,0.0132 -0.648229,-0.25135 l -2.262188,-2.27542 q -0.277812,-0.27781 -0.277812,-0.635 0.01323,-0.38364 0.277812,-0.64823 m 47.32073,-2.38125 q 0.0132,0.38365 -0.23812,0.64823 -0.26458,0.26459 -0.66146,0.25136 -0.37042,0.0132 -0.64823,-0.25136 l -2.26219,-2.27541 q -0.27781,-0.27782 -0.27781,-0.635 0.0132,-0.38365 0.27781,-0.64823 0.25136,-0.25136 0.63499,-0.25136 0.38365,-0.0132 0.64824,0.26459 l 2.27542,2.27541 q 0.26457,0.26459 0.25135,0.62177 m -10.29229,-5.55625 q -0.3175,-0.18521 -0.4101,-0.56885 -0.10584,-0.35719 0.0794,-0.68792 l 1.61396,-2.77812 q 0.1852,-0.33073 0.54239,-0.42334 0.37042,-0.0926 0.68792,0.0926 0.3175,0.18521 0.4101,0.55562 0.10584,0.35719 -0.0794,0.68792 l -1.61396,2.77812 q -0.1852,0.33073 -0.54239,0.42334 -0.37042,0.10583 -0.68792,-0.0794 M 102.922,172.44823 q 0.1852,-0.33073 0.54239,-0.42333 0.37042,-0.0926 0.68792,0.0926 0.3175,0.1852 0.4101,0.55562 0.10584,0.35719 -0.0794,0.68792 l -1.61396,2.77812 q -0.1852,0.33073 -0.54239,0.42334 -0.37042,0.10583 -0.68792,-0.0794 -0.3175,-0.18521 -0.4101,-0.56886 -0.10584,-0.35719 0.0794,-0.68791 l 1.61396,-2.77813 m 3.46604,-7.06437 q 0.38364,-0.0132 0.64823,0.26458 l 2.27541,2.27542 q 0.26459,0.26458 0.25136,0.62177 0.0132,0.38364 -0.23813,0.64823 -0.26458,0.26458 -0.66146,0.25135 -0.37041,0.0132 -0.64823,-0.25135 l -2.26218,-2.27542 q -0.27782,-0.27781 -0.27782,-0.635 0.0132,-0.38365 0.27782,-0.64823 0.25135,-0.25135 0.635,-0.25135 M 92.100537,161.0183 q 0.383646,-0.0132 0.648229,0.26458 l 2.275417,2.27542 q 0.264583,0.26458 0.251354,0.62177 0.01323,0.38365 -0.238125,0.64823 -0.264583,0.26458 -0.661458,0.25135 -0.370417,0.0132 -0.64823,-0.25135 l -2.262187,-2.27542 q -0.277813,-0.27781 -0.277813,-0.635 0.01323,-0.38364 0.277813,-0.64823 0.251354,-0.25135 0.635,-0.25135 m -8.5725,-8.58573 q 0.105823,0.35719 -0.07939,0.68792 l -1.613958,2.77812 q -0.185209,0.33073 -0.542396,0.42334 -0.370417,0.10583 -0.687917,-0.0794 -0.3175,-0.18521 -0.410104,-0.56885 -0.105833,-0.35719 0.07937,-0.68792 l 1.613958,-2.77813 q 0.185209,-0.33072 0.542396,-0.42333 0.370417,-0.0926 0.687917,0.0926 0.3175,0.18521 0.410104,0.55563"
       id="path44"
       inkscape:connector-curvature="0"
       style="fill:#66cc99;stroke:none;stroke-width:0.26458332" />
    <path
       d="m 95.725319,132.15226 q -0.3175,-0.18521 -0.410105,-0.52917 -0.0926,-0.37041 0.06615,-0.67469 0.185209,-0.33073 0.582084,-0.42333 l 0.648229,0.0529 0.02646,0.0132 2.778125,1.60073 q 0.343958,0.21166 0.436563,0.54239 0.105833,0.38365 -0.0926,0.71438 l -0.410104,0.35718 -0.15875,0.0529 q -0.343958,0.10584 -0.674687,-0.0794 l -2.791354,-1.62718 m 27.94,31.92197 q 0.34396,0.21167 0.43656,0.5424 0.10583,0.38365 -0.0926,0.71438 -0.14552,0.23812 -0.4101,0.35718 l -0.15875,0.0529 q -0.34396,0.10584 -0.67469,-0.0794 l -2.79135,-1.62718 q -0.3175,-0.18521 -0.41011,-0.52917 -0.0926,-0.37042 0.0661,-0.67469 0.18521,-0.33073 0.58209,-0.42333 l 0.64822,0.0529 0.0265,0.0132 2.77813,1.60073 m 1.9976,-7.34219 3.09563,-0.84667 q 0.39687,-0.0794 0.68792,0.0794 0.35718,0.19844 0.44979,0.58209 0.0529,0.26458 -0.0397,0.54239 l -0.0794,0.14552 q -0.17198,0.3175 -0.52917,0.41011 l -3.12208,0.83344 q -0.35719,0.0926 -0.66146,-0.0926 -0.33073,-0.19844 -0.43656,-0.51594 -0.10584,-0.37042 0.10583,-0.71438 0.17198,-0.30427 0.50271,-0.42333 h 0.0265 m -37.914792,-3.13531 0.02646,0.0132 2.778125,1.60073 q 0.343959,0.21166 0.436563,0.54239 0.105833,0.38365 -0.0926,0.71438 -0.145521,0.23812 -0.410104,0.35718 l -0.15875,0.0529 q -0.34398,0.10582 -0.674709,-0.0794 l -2.791354,-1.62719 q -0.3175,-0.18521 -0.410104,-0.52917 -0.0926,-0.37042 0.06615,-0.67469 0.185208,-0.33073 0.582083,-0.42333 l 0.648229,0.0529 m 5.450417,18.54729 q -0.330729,-0.19843 -0.436563,-0.51593 -0.105833,-0.37042 0.105834,-0.71438 0.171979,-0.30427 0.502708,-0.42333 h 0.02646 l 3.095625,-0.84667 q 0.396875,-0.0794 0.687917,0.0794 0.357187,0.19844 0.449792,0.58208 0.05292,0.26459 -0.03969,0.5424 l -0.07937,0.14552 q -0.171979,0.3175 -0.529167,0.4101 l -3.122083,0.83344 q -0.357187,0.0926 -0.661458,-0.0926"
       id="path46"
       inkscape:connector-curvature="0"
       style="fill:#ffccff;stroke:none;stroke-width:0.26458332" />
  </g>
</svg>
