<?xml version="1.0" encoding="UTF-8" standalone="no"?>
<!-- Created with Inkscape (http://www.inkscape.org/) -->

<svg
   xmlns:dc="http://purl.org/dc/elements/1.1/"
   xmlns:cc="http://creativecommons.org/ns#"
   xmlns:rdf="http://www.w3.org/1999/02/22-rdf-syntax-ns#"
   xmlns:svg="http://www.w3.org/2000/svg"
   xmlns="http://www.w3.org/2000/svg"
   xmlns:sodipodi="http://sodipodi.sourceforge.net/DTD/sodipodi-0.dtd"
   xmlns:inkscape="http://www.inkscape.org/namespaces/inkscape"
   width="53.440903mm"
   height="58.281029mm"
   viewBox="0 0 53.440903 58.281029"
   version="1.1"
   id="svg2735"
   inkscape:version="0.92.5 (2060ec1f9f, 2020-04-08)"
   sodipodi:docname="toppings_4.svg">
  <defs
     id="defs2729" />
  <sodipodi:namedview
     id="base"
     pagecolor="#ffffff"
     bordercolor="#666666"
     borderopacity="1.0"
     inkscape:pageopacity="0.0"
     inkscape:pageshadow="2"
     inkscape:zoom="0.35"
     inkscape:cx="-937.58054"
     inkscape:cy="670.13732"
     inkscape:document-units="mm"
     inkscape:current-layer="layer1"
     showgrid="false"
     fit-margin-top="0"
     fit-margin-left="0"
     fit-margin-right="0"
     fit-margin-bottom="0"
     inkscape:window-width="1920"
     inkscape:window-height="995"
     inkscape:window-x="0"
     inkscape:window-y="48"
     inkscape:window-maximized="1" />
  <metadata
     id="metadata2732">
    <rdf:RDF>
      <cc:Work
         rdf:about="">
        <dc:format>image/svg+xml</dc:format>
        <dc:type
           rdf:resource="http://purl.org/dc/dcmitype/StillImage" />
        <dc:title></dc:title>
      </cc:Work>
    </rdf:RDF>
  </metadata>
  <g
     inkscape:label="Layer 1"
     inkscape:groupmode="layer"
     id="layer1"
     transform="translate(-203.84497,-267.85947)">
    <path
       d="m 232.42665,268.84502 q 0.0661,0.10584 0.0397,0.2249 l -0.52916,2.57969 -0.10584,0.18521 -0.17197,0.0794 -2.06375,0.21167 -0.18521,-0.0397 -0.11907,-0.13229 -0.97895,-1.65365 q -0.0529,-0.0926 -0.0397,-0.17198 l 0.0529,-0.17198 1.32291,-1.93145 0.17198,-0.14552 q 0.0926,-0.0397 0.21167,0 l 2.2225,0.80697 0.17198,0.15875 m -23.16428,22.37053 q 0.0397,0.14552 -0.0265,0.29104 l -1.46843,2.92364 -0.18521,0.18521 -0.23813,0.0397 -2.52677,-0.42333 -0.21166,-0.0926 -0.10584,-0.19844 -0.635,-2.30187 q -0.0397,-0.11907 0,-0.21167 0.0265,-0.13229 0.11907,-0.19844 l 2.20927,-1.89178 q 0.10583,-0.0926 0.25135,-0.10583 0.13229,-0.0132 0.25135,0.0661 l 2.40771,1.69333 0.15875,0.2249 m 6.45584,-0.30427 1.52135,1.78594 0.0926,0.19843 -0.0529,0.21167 -1.3626,1.93146 q -0.0794,0.0926 -0.18521,0.13229 l -0.23812,-0.0265 -2.35479,-1.1774 -0.14552,-0.14552 q -0.0529,-0.10583 -0.0265,-0.19844 l 0.33073,-2.03729 0.0794,-0.17198 q 0.0661,-0.0661 0.15875,-0.0794 l 1.85209,-0.51593 h 0.17198 q 0.10583,0.0265 0.15875,0.0926 m 32.37177,-18.74573 0.15875,0.0926 1.52135,1.78594 0.0926,0.19843 -0.0529,0.21168 -1.36261,1.93146 -0.1852,0.13229 -0.23813,-0.0265 -2.35479,-1.17739 -0.14552,-0.14552 q -0.0529,-0.10584 -0.0265,-0.19844 l 0.33073,-2.03729 0.0794,-0.17198 0.15875,-0.0794 1.85208,-0.51594 h 0.17198 m -6.69395,8.63865 q -0.0132,-0.13229 0.0661,-0.25135 l 1.69333,-2.40771 q 0.0926,-0.11906 0.2249,-0.15875 l 0.29104,0.0265 2.92365,1.46844 0.1852,0.1852 q 0.0661,0.11907 0.0397,0.23813 l -0.42333,2.52677 -0.0926,0.21167 -0.19844,0.10583 -2.30187,0.635 h -0.21167 l -0.19844,-0.11906 -1.89177,-2.20927 q -0.0926,-0.10584 -0.10583,-0.25136 m 7.80521,26.81552 0.29104,0.0265 2.92364,1.46844 0.18521,0.18521 0.0397,0.23812 -0.42333,2.52677 -0.0926,0.21167 q -0.0794,0.0794 -0.19844,0.10583 l -2.30187,0.635 h -0.21167 q -0.13229,-0.0265 -0.19844,-0.11906 l -1.89177,-2.20927 q -0.0926,-0.10583 -0.10583,-0.25135 -0.0132,-0.1323 0.0661,-0.25136 l 1.69333,-2.40771 q 0.0926,-0.11906 0.2249,-0.15875 m -20.16125,13.16302 2.40771,1.69334 q 0.11906,0.0926 0.15875,0.22489 0.0397,0.14552 -0.0265,0.29104 l -1.46844,2.92365 -0.18521,0.18521 -0.23812,0.0397 -2.52678,-0.42334 -0.21166,-0.0926 -0.10584,-0.19843 -0.635,-2.30188 q -0.0397,-0.11906 0,-0.21166 0.0265,-0.1323 0.11907,-0.19844 l 2.20927,-1.89177 q 0.10583,-0.0926 0.25135,-0.10584 0.13229,-0.0132 0.25136,0.0661 m -17.84616,-8.09626 -1.3626,1.93146 -0.18521,0.13229 -0.23813,-0.0265 -2.35479,-1.17739 -0.14552,-0.14552 q -0.0529,-0.10584 -0.0265,-0.19844 l 0.33073,-2.03729 0.0794,-0.17198 q 0.0661,-0.0661 0.15875,-0.0794 l 1.85208,-0.51594 h 0.17198 l 0.15875,0.0926 1.52135,1.78594 0.0926,0.19844 -0.0529,0.21166"
       id="path62"
       inkscape:connector-curvature="0"
       style="fill:#ecab5b;stroke:none;stroke-width:0.26458332" />
    <path
       d="m 224.54207,274.87752 2.40771,1.69334 0.15875,0.22489 q 0.0397,0.14552 -0.0265,0.29104 l -1.46844,2.92365 -0.18521,0.18521 -0.23812,0.0397 -2.52677,-0.42333 q -0.11906,-0.0265 -0.21167,-0.0926 l -0.10583,-0.19845 -0.635,-2.30187 q -0.0397,-0.11907 0,-0.21167 0.0265,-0.13229 0.11906,-0.19844 l 2.20927,-1.89177 q 0.10584,-0.0926 0.25136,-0.10583 0.13229,-0.0132 0.25135,0.0661 m 29.91115,9.85573 q 0.13229,-0.0132 0.25135,0.0661 l 2.40771,1.69334 0.15875,0.22489 q 0.0397,0.14552 -0.0265,0.29104 l -1.46844,2.92365 -0.18521,0.18521 -0.23812,0.0397 -2.52677,-0.42333 -0.21167,-0.0926 -0.10583,-0.19844 -0.635,-2.30188 q -0.0397,-0.11906 0,-0.21166 0.0265,-0.1323 0.11906,-0.19844 l 2.20927,-1.89177 q 0.10583,-0.0926 0.25136,-0.10584 m -19.69823,28.00615 1.52135,1.78594 0.0926,0.19844 -0.0529,0.21166 -1.3626,1.93146 -0.18521,0.13229 -0.23813,-0.0265 -2.35479,-1.17739 -0.14552,-0.14552 q -0.0529,-0.10584 -0.0265,-0.19844 l 0.33073,-2.03729 0.0794,-0.17198 0.15875,-0.0794 1.85208,-0.51594 h 0.17198 q 0.10584,0.0265 0.15875,0.0926 m -22.58217,-13.85095 0.29104,0.0265 2.92365,1.46844 0.18521,0.18521 q 0.0661,0.11906 0.0397,0.23812 l -0.42334,2.52677 -0.0926,0.21167 q -0.0794,0.0794 -0.19844,0.10583 l -2.30187,0.635 h -0.21167 q -0.1323,-0.0265 -0.19844,-0.11906 l -1.89177,-2.20927 q -0.0926,-0.10583 -0.10584,-0.25136 -0.0132,-0.13229 0.0661,-0.25135 l 1.69333,-2.40771 q 0.0926,-0.11906 0.2249,-0.15875"
       id="path64"
       inkscape:connector-curvature="0"
       style="fill:#fab867;stroke:none;stroke-width:0.26458332" />
    <path
       d="m 210.22811,278.50232 1.85209,-0.51594 h 0.17197 l 0.15875,0.0926 1.52136,1.78594 0.0926,0.19843 -0.0529,0.21167 -1.3626,1.93146 -0.18521,0.13229 -0.23813,-0.0265 -2.35478,-1.17739 -0.14552,-0.14552 q -0.0529,-0.10583 -0.0265,-0.19844 l 0.33073,-2.03729 0.0794,-0.17198 q 0.0662,-0.0661 0.15875,-0.0794 m 27.41084,-4.04813 -1.36261,1.93146 -0.18521,0.13229 -0.23812,-0.0265 -2.35479,-1.17739 -0.14552,-0.14552 q -0.0529,-0.10584 -0.0265,-0.19844 l 0.33073,-2.03729 0.0794,-0.17198 0.15875,-0.0794 1.85208,-0.51594 h 0.17198 l 0.15875,0.0926 1.52135,1.78594 0.0926,0.19843 -0.0529,0.21167 m 9.63084,20.37292 1.32291,-1.93146 q 0.0529,-0.0926 0.17198,-0.14552 0.0926,-0.0397 0.21167,0 l 2.2225,0.80698 0.17198,0.15875 0.0397,0.22489 -0.52917,2.57969 -0.10583,0.18521 -0.17198,0.0794 -2.06375,0.21167 -0.18521,-0.0397 q -0.0794,-0.0397 -0.11906,-0.1323 l -0.97896,-1.65364 -0.0397,-0.17198 0.0529,-0.17198 m 7.96396,3.2676 q 0.10583,0.0265 0.15875,0.0926 l 1.52135,1.78594 0.0926,0.19844 -0.0529,0.21167 -1.3626,1.93145 -0.18521,0.1323 -0.23813,-0.0265 -2.35479,-1.1774 -0.14552,-0.14552 q -0.0529,-0.10583 -0.0265,-0.19844 l 0.33073,-2.03729 0.0794,-0.17198 0.15875,-0.0794 1.85208,-0.51594 h 0.17198 m -14.35364,19.85698 2.20927,-1.89177 q 0.10583,-0.0926 0.25135,-0.10583 0.13229,-0.0132 0.25136,0.0661 l 2.40771,1.69333 0.15875,0.2249 q 0.0397,0.14552 -0.0265,0.29104 l -1.46844,2.92364 -0.18521,0.18521 -0.23813,0.0397 -2.52677,-0.42333 -0.21166,-0.0926 -0.10584,-0.19844 -0.635,-2.30187 q -0.0397,-0.11907 0,-0.21167 0.0265,-0.13229 0.11907,-0.19844 m -22.21177,-4.61698 2.92364,1.46844 0.18521,0.18521 q 0.0661,0.11906 0.0397,0.23812 l -0.42333,2.52677 -0.0926,0.21167 -0.19844,0.10583 -2.30188,0.635 h -0.21163 l -0.19844,-0.11905 -1.89177,-2.20927 q -0.0926,-0.10583 -0.10584,-0.25135 -0.0132,-0.1323 0.0661,-0.25136 l 1.69334,-2.40771 q 0.0926,-0.11906 0.22489,-0.15875 l 0.29105,0.0265"
       id="path66"
       inkscape:connector-curvature="0"
       style="fill:#db9e50;stroke:none;stroke-width:0.26458332" />
  </g>
</svg>
