<?xml version="1.0" encoding="UTF-8" standalone="no"?>
<!-- Created with Inkscape (http://www.inkscape.org/) -->

<svg
   xmlns:dc="http://purl.org/dc/elements/1.1/"
   xmlns:cc="http://creativecommons.org/ns#"
   xmlns:rdf="http://www.w3.org/1999/02/22-rdf-syntax-ns#"
   xmlns:svg="http://www.w3.org/2000/svg"
   xmlns="http://www.w3.org/2000/svg"
   xmlns:sodipodi="http://sodipodi.sourceforge.net/DTD/sodipodi-0.dtd"
   xmlns:inkscape="http://www.inkscape.org/namespaces/inkscape"
   width="51.35508mm"
   height="55.535618mm"
   viewBox="0 0 51.35508 55.535618"
   version="1.1"
   id="svg9874"
   inkscape:version="0.92.5 (2060ec1f9f, 2020-04-08)"
   sodipodi:docname="toppings_0.svg">
  <defs
     id="defs9868" />
  <sodipodi:namedview
     id="base"
     pagecolor="#ffffff"
     bordercolor="#666666"
     borderopacity="1.0"
     inkscape:pageopacity="0.0"
     inkscape:pageshadow="2"
     inkscape:zoom="0.35"
     inkscape:cx="97.048931"
     inkscape:cy="104.94885"
     inkscape:document-units="mm"
     inkscape:current-layer="layer1"
     showgrid="false"
     fit-margin-top="0"
     fit-margin-left="0"
     fit-margin-right="0"
     fit-margin-bottom="0"
     inkscape:window-width="1920"
     inkscape:window-height="995"
     inkscape:window-x="0"
     inkscape:window-y="48"
     inkscape:window-maximized="1" />
  <metadata
     id="metadata9871">
    <rdf:RDF>
      <cc:Work
         rdf:about="">
        <dc:format>image/svg+xml</dc:format>
        <dc:type
           rdf:resource="http://purl.org/dc/dcmitype/StillImage" />
        <dc:title></dc:title>
      </cc:Work>
    </rdf:RDF>
  </metadata>
  <g
     inkscape:label="Layer 1"
     inkscape:groupmode="layer"
     id="layer1"
     transform="translate(69.900744,-121.06543)">
    <path
       inkscape:connector-curvature="0"
       style="fill:#5f4f38;stroke:none;stroke-width:0.26458332"
       d="m -45.904248,172.11757 q 0.3175,0.18521 0.410104,0.55562 0.105833,0.35719 -0.07937,0.68792 l -1.613958,2.77812 q -0.185209,0.33073 -0.542396,0.42334 -0.370417,0.10583 -0.687917,-0.0794 -0.3175,-0.18521 -0.410104,-0.56886 -0.105833,-0.35718 0.07938,-0.68791 l 1.613958,-2.77813 q 0.185209,-0.33073 0.542396,-0.42333 0.370417,-0.0926 0.687917,0.0926 m -10.95375,0.0265 q -0.330729,-0.19844 -0.436563,-0.51594 -0.105833,-0.37041 0.105834,-0.71437 0.171979,-0.30427 0.502708,-0.42334 h 0.02646 l 3.095625,-0.84666 q 0.396875,-0.0794 0.687917,0.0794 0.357187,0.19843 0.449792,0.58208 0.05292,0.26458 -0.03969,0.5424 l -0.07937,0.14552 q -0.171979,0.3175 -0.529167,0.4101 l -3.122083,0.83344 q -0.357187,0.0926 -0.661458,-0.0926 m -7.924286,-12.39574 q 0.357187,0 0.635,0.27781 0.277812,0.25135 0.264583,0.635 v 3.21469 q 0,0.37041 -0.251354,0.635 -0.277812,0.26458 -0.635,0.27781 -0.370417,0 -0.648229,-0.29104 -0.264583,-0.25136 -0.277813,-0.635 v -3.20146 q 0,-0.39688 0.251355,-0.64823 0.291041,-0.26458 0.661458,-0.26458 m 5.715,-3.99521 q 0.105833,0.38364 -0.0926,0.71437 -0.145521,0.23813 -0.410104,0.35719 l -0.15875,0.0529 q -0.343963,0.10583 -0.674692,-0.0794 l -2.791354,-1.62718 q -0.3175,-0.18521 -0.410104,-0.52917 -0.0926,-0.37042 0.06615,-0.67469 0.185208,-0.33073 0.582083,-0.42333 l 0.648229,0.0529 0.02646,0.0132 2.778125,1.60073 q 0.343959,0.21166 0.436563,0.54239 m -7.871354,-3.87615 q 0.3175,0.18521 0.410104,0.55563 0.105833,0.35719 -0.07937,0.68791 l -1.613959,2.77813 q -0.185208,0.33073 -0.542395,0.42333 -0.370417,0.10584 -0.687917,-0.0794 -0.3175,-0.18521 -0.410104,-0.56886 -0.105834,-0.35718 0.07937,-0.68791 l 1.613958,-2.77813 q 0.185208,-0.33073 0.542396,-0.42333 0.370417,-0.0926 0.687917,0.0926 m 1.071562,-8.99583 q 0.251354,-0.25136 0.635,-0.25136 0.383646,-0.0132 0.648229,0.26459 l 2.275417,2.27541 q 0.264583,0.26459 0.251354,0.62177 0.01323,0.38365 -0.238125,0.64823 -0.264583,0.26459 -0.661458,0.25136 -0.370417,0.0132 -0.648229,-0.25135 l -2.262188,-2.27542 q -0.277812,-0.27781 -0.277812,-0.635 0.01323,-0.38365 0.277812,-0.64823 m 21.563542,22.75417 q 0.251354,-0.25136 0.635,-0.25136 0.383644,-0.0132 0.648228,0.26459 l 2.275416,2.27541 q 0.264584,0.26459 0.251355,0.62177 0.01323,0.38365 -0.238125,0.64823 -0.264584,0.26459 -0.661459,0.25136 -0.370416,0.0132 -0.648229,-0.25136 l -2.262186,-2.27541 q -0.277813,-0.27782 -0.277813,-0.635 0.01323,-0.38365 0.277813,-0.64823 m -10.728854,-2.07698 q 0.264583,0.26458 0.251354,0.62177 0.01323,0.38364 -0.238125,0.64823 -0.264583,0.26458 -0.661458,0.25135 -0.370417,0.0132 -0.64823,-0.25135 l -2.262187,-2.27542 q -0.277813,-0.27781 -0.277813,-0.635 0.01323,-0.38365 0.277813,-0.64823 0.251354,-0.25135 0.635,-0.25135 0.383646,-0.0132 0.648229,0.26458 l 2.275417,2.27542 m 4.392083,-31.36636 q 0.343958,0.21167 0.436563,0.5424 0.105833,0.38365 -0.0926,0.71437 l -0.410104,0.35719 -0.15875,0.0529 q -0.343958,0.10584 -0.674687,-0.0794 l -2.791354,-1.62719 q -0.3175,-0.1852 -0.410105,-0.52916 -0.0926,-0.37042 0.06615,-0.67469 0.185209,-0.33073 0.582084,-0.42333 l 0.648229,0.0529 0.02646,0.0132 2.778125,1.60073 m 2.804583,-8.16239 q 0.291042,-0.26459 0.661459,-0.26459 0.357187,0 0.635,0.27782 0.277812,0.25135 0.264583,0.635 v 3.21468 q 0,0.37042 -0.251354,0.635 -0.277813,0.26459 -0.635,0.27782 -0.370417,0 -0.648229,-0.29105 -0.264584,-0.25135 -0.277813,-0.635 v -3.20146 q 0,-0.39688 0.251354,-0.64823 m 11.73427,1.09802 q -0.370428,0.0132 -0.64824,-0.25136 l -2.262188,-2.27541 q -0.277812,-0.27781 -0.277812,-0.635 0.01323,-0.38365 0.277812,-0.64823 0.251354,-0.25136 0.635,-0.25136 0.383646,-0.0132 0.648229,0.26459 l 2.275417,2.27541 q 0.264583,0.26459 0.251354,0.62178 0.01323,0.38364 -0.238125,0.64822 -0.264583,0.26459 -0.661458,0.25136 m -26.736145,9.64406 q 0.383646,0.11906 0.568855,0.44979 0.171979,0.30427 0.06615,0.68792 -0.07937,0.35719 -0.410105,0.55562 l -2.791354,1.60073 q -0.3175,0.18521 -0.674687,0.0926 -0.370417,-0.10583 -0.555625,-0.39687 -0.185209,-0.33073 -0.06615,-0.71437 0.07937,-0.35719 0.396875,-0.55563 l 2.778125,-1.60073 q 0.343958,-0.19843 0.687916,-0.11906 m 4.643438,-6.54844 q 0.105833,0.35719 -0.07937,0.68792 l -1.613963,2.77813 q -0.185209,0.33072 -0.542396,0.42333 -0.370417,0.10583 -0.687917,-0.0794 -0.3175,-0.1852 -0.410104,-0.56885 -0.105833,-0.35719 0.07938,-0.68792 l 1.613958,-2.77812 q 0.185209,-0.33073 0.542396,-0.42334 0.370417,-0.0926 0.687917,0.0926 0.3175,0.18521 0.410104,0.55562 m 25.161874,42.4524 q 0.171979,0.30427 0.06614,0.68792 -0.07937,0.35718 -0.410104,0.55562 l -2.791354,1.60073 q -0.3175,0.18521 -0.674687,0.0926 -0.370417,-0.10583 -0.555625,-0.39688 -0.185209,-0.33073 -0.06615,-0.71437 0.07938,-0.35719 0.396875,-0.55563 l 2.778125,-1.60073 q 0.343958,-0.19843 0.687916,-0.11906 0.383646,0.11906 0.568855,0.44979 m 2.950104,-6.64104 q -0.3175,-0.18521 -0.410104,-0.52916 -0.0926,-0.37042 0.06614,-0.67469 0.185209,-0.33073 0.582084,-0.42334 l 0.648229,0.0529 0.02646,0.0132 2.778125,1.60073 q 0.343959,0.21167 0.436563,0.5424 0.105833,0.38365 -0.0926,0.71437 l -0.410105,0.35719 -0.15875,0.0529 q -0.343958,0.10584 -0.674687,-0.0794 l -2.791354,-1.62718 m 5.053541,-6.1648 q -0.105833,-0.37041 0.105834,-0.71437 0.171979,-0.30427 0.502708,-0.42333 h 0.02646 l 3.095625,-0.84667 q 0.396875,-0.0794 0.687917,0.0794 0.357188,0.19844 0.449792,0.58208 0.05292,0.26459 -0.03969,0.5424 l -0.07937,0.14552 q -0.171979,0.3175 -0.529166,0.4101 l -3.122084,0.83344 q -0.357187,0.0926 -0.661458,-0.0926 -0.330729,-0.19844 -0.436563,-0.51594 m 1.534584,-12.54125 q 0.357187,0 0.635,0.27782 0.277812,0.25135 0.264583,0.635 v 3.21468 q 0,0.37042 -0.251354,0.635 -0.277813,0.26459 -0.635,0.27782 -0.370417,0 -0.648229,-0.29105 -0.264584,-0.25135 -0.277813,-0.635 v -3.20145 q 0,-0.39688 0.251354,-0.64823 0.291042,-0.26459 0.661459,-0.26459 m 1.137708,-7.73906 q 0.251354,-0.25135 0.635,-0.25135 0.383646,-0.0132 0.648229,0.26458 l 2.275417,2.27542 q 0.264583,0.26458 0.251354,0.62177 0.01323,0.38364 -0.238125,0.64823 -0.264583,0.26458 -0.661458,0.25135 -0.370417,0.0132 -0.648229,-0.25135 l -2.262185,-2.27542 q -0.277812,-0.27781 -0.277812,-0.635 0.01323,-0.38364 0.277812,-0.64823 m -9.68375,-7.10406 q -0.07938,0.35719 -0.410104,0.55563 l -2.791354,1.60073 q -0.3175,0.1852 -0.674688,0.0926 -0.370416,-0.10584 -0.555625,-0.39688 -0.185208,-0.33073 -0.06615,-0.71437 0.07937,-0.35719 0.396875,-0.55563 l 2.778125,-1.60073 q 0.343959,-0.19844 0.687917,-0.11906 0.383646,0.11906 0.568854,0.44979 0.171979,0.30427 0.06615,0.68792 m 5.715,0.0926 q 0.3175,0.18521 0.410104,0.55563 0.105834,0.35718 -0.07937,0.68791 l -1.613958,2.77813 q -0.185208,0.33073 -0.542396,0.42333 -0.370417,0.10584 -0.687917,-0.0794 -0.3175,-0.18521 -0.410104,-0.56885 -0.105833,-0.35719 0.07937,-0.68792 l 1.613959,-2.77812 q 0.185208,-0.33073 0.542395,-0.42334 0.370417,-0.0926 0.687917,0.0926"
       id="path50" />
  </g>
</svg>
