<?xml version="1.0" encoding="UTF-8" standalone="no"?>
<!-- Created with Inkscape (http://www.inkscape.org/) -->

<svg
   xmlns:dc="http://purl.org/dc/elements/1.1/"
   xmlns:cc="http://creativecommons.org/ns#"
   xmlns:rdf="http://www.w3.org/1999/02/22-rdf-syntax-ns#"
   xmlns:svg="http://www.w3.org/2000/svg"
   xmlns="http://www.w3.org/2000/svg"
   xmlns:sodipodi="http://sodipodi.sourceforge.net/DTD/sodipodi-0.dtd"
   xmlns:inkscape="http://www.inkscape.org/namespaces/inkscape"
   width="51.35511mm"
   height="55.535408mm"
   viewBox="0 0 51.35511 55.535408"
   version="1.1"
   id="svg8682"
   inkscape:version="0.92.5 (2060ec1f9f, 2020-04-08)"
   sodipodi:docname="icing_10.svg">
  <defs
     id="defs8676" />
  <sodipodi:namedview
     id="base"
     pagecolor="#ffffff"
     bordercolor="#666666"
     borderopacity="1.0"
     inkscape:pageopacity="0.0"
     inkscape:pageshadow="2"
     inkscape:zoom="0.35"
     inkscape:cx="-738.66521"
     inkscape:cy="899.23426"
     inkscape:document-units="mm"
     inkscape:current-layer="layer1"
     showgrid="false"
     fit-margin-top="0"
     fit-margin-left="0"
     fit-margin-right="0"
     fit-margin-bottom="0"
     inkscape:window-width="1920"
     inkscape:window-height="995"
     inkscape:window-x="0"
     inkscape:window-y="48"
     inkscape:window-maximized="1" />
  <metadata
     id="metadata8679">
    <rdf:RDF>
      <cc:Work
         rdf:about="">
        <dc:format>image/svg+xml</dc:format>
        <dc:type
           rdf:resource="http://purl.org/dc/dcmitype/StillImage" />
        <dc:title></dc:title>
      </cc:Work>
    </rdf:RDF>
  </metadata>
  <g
     inkscape:label="Layer 1"
     inkscape:groupmode="layer"
     id="layer1"
     transform="translate(-151.21529,-331.22032)">
    <path
       inkscape:connector-curvature="0"
       style="fill:#ffcc00;stroke:none;stroke-width:0.26458332"
       d="m 189.00984,339.95223 q 0.17198,0.30427 0.0661,0.68792 -0.0794,0.35718 -0.4101,0.55562 l -2.79136,1.60073 q -0.3175,0.18521 -0.67469,0.0926 -0.37041,-0.10583 -0.55562,-0.39687 -0.18521,-0.33073 -0.0661,-0.71438 0.0794,-0.35719 0.39687,-0.55562 l 2.77813,-1.60073 q 0.34396,-0.19844 0.68792,-0.11907 0.38364,0.11907 0.56885,0.4498 m 7.95073,15.79562 q 0.29104,-0.26458 0.66146,-0.26458 0.35719,0 0.635,0.27781 0.27781,0.25136 0.26458,0.635 v 3.21469 q 0,0.37041 -0.25135,0.635 -0.27782,0.26458 -0.635,0.27781 -0.37042,0 -0.64823,-0.29104 -0.26459,-0.25136 -0.27781,-0.635 v -3.20146 q 0,-0.39687 0.25135,-0.64823 m -10.13354,24.75177 q 0.34396,-0.19844 0.68791,-0.11906 0.38365,0.11906 0.56886,0.44979 0.17198,0.30427 0.0661,0.68792 -0.0794,0.35719 -0.4101,0.55562 l -2.79136,1.60073 q -0.3175,0.18521 -0.67469,0.0926 -0.37041,-0.10583 -0.55562,-0.39687 -0.18521,-0.33073 -0.0661,-0.71438 0.0794,-0.35719 0.39687,-0.55562 l 2.77813,-1.60073 M 158.27849,344.9264 q 0.38364,0.11906 0.56885,0.44979 0.17198,0.30427 0.0661,0.68792 -0.0794,0.35718 -0.41011,0.55562 l -2.79135,1.60073 q -0.3175,0.18521 -0.67469,0.0926 -0.37041,-0.10583 -0.55562,-0.39687 -0.18521,-0.33073 -0.0661,-0.71438 0.0794,-0.35718 0.39688,-0.55562 l 2.77812,-1.60073 q 0.34396,-0.19844 0.68792,-0.11906 m 16.29833,-10.72886 q 0.27781,0.25136 0.26458,0.635 v 3.21469 q 0,0.37042 -0.25135,0.635 -0.27781,0.26458 -0.635,0.27781 -0.37042,0 -0.64823,-0.29104 -0.26458,-0.25135 -0.27781,-0.635 v -3.20146 q 0,-0.39687 0.25135,-0.64823 0.29104,-0.26458 0.66146,-0.26458 0.35719,0 0.635,0.27781 m -18.90448,35.97011 q 0.29104,-0.26459 0.66146,-0.26459 0.35719,0 0.635,0.27782 0.27781,0.25135 0.26458,0.635 v 3.21468 q 0,0.37042 -0.25135,0.635 -0.27781,0.26459 -0.635,0.27782 -0.37042,0 -0.64823,-0.29105 -0.26458,-0.25135 -0.27781,-0.635 v -3.20145 q 0,-0.39688 0.25135,-0.64823"
       id="path36" />
    <path
       inkscape:connector-curvature="0"
       style="fill:#ff6600;stroke:none;stroke-width:0.26458332"
       d="m 202.56974,350.65463 q 0.0132,0.38364 -0.23813,0.64823 -0.26458,0.26458 -0.66146,0.25135 -0.37041,0.0132 -0.64823,-0.25135 l -2.26218,-2.27542 q -0.27782,-0.27781 -0.27782,-0.635 0.0132,-0.38365 0.27782,-0.64823 0.25135,-0.25135 0.635,-0.25135 0.38364,-0.0132 0.64823,0.26458 l 2.27541,2.27542 q 0.26459,0.26458 0.25136,0.62177 m -7.36865,-9.36625 q 0.10583,0.35718 -0.0794,0.68791 l -1.61396,2.77813 q -0.18521,0.33073 -0.54239,0.42333 -0.37042,0.10584 -0.68792,-0.0794 -0.3175,-0.18521 -0.4101,-0.56885 -0.10584,-0.35719 0.0794,-0.68792 l 1.61395,-2.77812 q 0.18521,-0.33073 0.5424,-0.42334 0.37042,-0.0926 0.68792,0.0926 0.3175,0.1852 0.4101,0.55562 m -33.37719,-3.55865 q 0.37042,-0.0926 0.68792,0.0926 0.3175,0.18521 0.41011,0.55563 0.10583,0.35719 -0.0794,0.68792 l -1.61397,2.77812 q -0.18521,0.33073 -0.54239,0.42334 -0.37042,0.10583 -0.68792,-0.0794 -0.3175,-0.18521 -0.4101,-0.56885 -0.10584,-0.35719 0.0794,-0.68792 l 1.61396,-2.77813 q 0.18521,-0.33073 0.54239,-0.42333 m 20.28032,-6.2574 q 0.25135,-0.25135 0.635,-0.25135 0.38364,-0.0132 0.64822,0.26458 l 2.27542,2.27542 q 0.26458,0.26458 0.25136,0.62177 0.0132,0.38365 -0.23813,0.64823 -0.26458,0.26458 -0.66146,0.25135 -0.37041,0.0132 -0.64823,-0.25135 l -2.26218,-2.27542 q -0.27782,-0.27781 -0.27782,-0.635 0.0132,-0.38364 0.27782,-0.64823 m -24.59302,25.12219 -2.26219,-2.27541 q -0.27781,-0.27782 -0.27781,-0.635 0.0132,-0.38365 0.27781,-0.64823 0.25135,-0.25136 0.635,-0.25136 0.38364,-0.0132 0.64823,0.26459 l 2.27541,2.27541 q 0.26459,0.26459 0.25136,0.62177 0.0132,0.38365 -0.23813,0.64823 -0.26458,0.26459 -0.66145,0.25136 -0.37042,0.0132 -0.64823,-0.25136 m 7.92427,18.6399 q -0.37042,0.0132 -0.64823,-0.25136 l -2.26219,-2.27541 q -0.27781,-0.27782 -0.27781,-0.635 0.0132,-0.38365 0.27781,-0.64823 0.25135,-0.25136 0.635,-0.25136 0.38365,-0.0132 0.64823,0.26459 l 2.27542,2.27541 q 0.26458,0.26459 0.25135,0.62177 0.0132,0.38365 -0.23812,0.64823 -0.26459,0.26459 -0.66146,0.25136 m -10.84792,-12.64709 q 0.10583,0.35719 -0.0794,0.68792 l -1.61396,2.77813 q -0.18521,0.33073 -0.5424,0.42333 -0.37042,0.10583 -0.68792,-0.0794 -0.3175,-0.1852 -0.4101,-0.56885 -0.10583,-0.35719 0.0794,-0.68792 l 1.61395,-2.77812 q 0.18521,-0.33073 0.5424,-0.42333 0.37042,-0.0926 0.68792,0.0926 0.3175,0.1852 0.4101,0.55562 m 22.86,12.95135 q 0.38364,-0.0132 0.64823,0.26459 l 2.27541,2.27541 q 0.26459,0.26459 0.25136,0.62178 0.0132,0.38364 -0.23813,0.64822 -0.26458,0.26459 -0.66145,0.25136 -0.37042,0.0132 -0.64823,-0.25136 l -2.26219,-2.27541 q -0.27781,-0.27781 -0.27781,-0.635 0.0132,-0.38365 0.27781,-0.64823 0.25135,-0.25136 0.635,-0.25136 m -3.46604,7.06438 q 0.18521,-0.33073 0.54239,-0.42333 0.37042,-0.0926 0.68792,0.0926 0.3175,0.1852 0.41011,0.55562 0.10583,0.35719 -0.0794,0.68792 l -1.61396,2.77812 q -0.18521,0.33073 -0.5424,0.42334 -0.37042,0.10583 -0.68792,-0.0794 -0.3175,-0.18521 -0.4101,-0.56886 -0.10583,-0.35719 0.0794,-0.68791 l 1.61396,-2.77813"
       id="path38" />
    <path
       inkscape:connector-curvature="0"
       style="fill:#ffccff;stroke:none;stroke-width:0.26458332"
       d="m 191.94672,372.62827 2.77812,1.60073 q 0.34396,0.21167 0.43656,0.5424 0.10584,0.38364 -0.0926,0.71437 l -0.4101,0.35719 -0.15875,0.0529 q -0.34396,0.10583 -0.67469,-0.0794 l -2.79135,-1.62719 q -0.3175,-0.18521 -0.41011,-0.52916 -0.0926,-0.37042 0.0661,-0.67469 0.18521,-0.33073 0.58209,-0.42334 l 0.64823,0.0529 0.0265,0.0132 m 7.87135,-6.58812 q 0.39688,-0.0794 0.68792,0.0794 0.35719,0.19844 0.44979,0.58208 0.0529,0.26459 -0.0397,0.5424 l -0.0794,0.14552 q -0.17198,0.3175 -0.52917,0.4101 l -3.12208,0.83344 q -0.35719,0.0926 -0.66146,-0.0926 -0.33073,-0.19844 -0.43656,-0.51594 -0.10583,-0.37041 0.10583,-0.71437 0.17198,-0.30427 0.50271,-0.42333 h 0.0265 l 3.09563,-0.84667 m -32.14688,-25.3074 0.0265,0.0132 2.77812,1.60073 q 0.34396,0.21167 0.43656,0.5424 0.10584,0.38364 -0.0926,0.71437 l -0.4101,0.35719 -0.15875,0.0529 q -0.34396,0.10583 -0.67469,-0.0794 l -2.79135,-1.62719 q -0.3175,-0.18521 -0.41011,-0.52917 -0.0926,-0.37041 0.0661,-0.67468 0.18521,-0.33073 0.58209,-0.42334 l 0.64823,0.0529 m -3.24116,39.91239 h 0.0265 l 3.09563,-0.84667 q 0.39687,-0.0794 0.68791,0.0794 0.35719,0.19844 0.44979,0.58208 0.0529,0.26459 -0.0397,0.5424 l -0.0794,0.14552 q -0.17197,0.3175 -0.52916,0.4101 l -3.12209,0.83344 q -0.35718,0.0926 -0.66145,-0.0926 -0.33073,-0.19844 -0.43657,-0.51594 -0.10583,-0.37041 0.10584,-0.71437 0.17198,-0.30427 0.50271,-0.42333 m -5.6224,-16.89365 0.0265,0.0132 2.77812,1.60073 q 0.34396,0.21166 0.43657,0.54239 0.10583,0.38365 -0.0926,0.71438 -0.14553,0.23812 -0.41011,0.35719 l -0.15875,0.0529 q -0.34397,0.10582 -0.6747,-0.0794 l -2.79135,-1.62719 q -0.3175,-0.18521 -0.4101,-0.52916 -0.0926,-0.37042 0.0661,-0.67469 0.18521,-0.33073 0.58209,-0.42334 l 0.64822,0.0529"
       id="path40" />
  </g>
</svg>
